<svg width="42" height="42" viewBox="0 0 42 42" fill="none" xmlns="http://www.w3.org/2000/svg">
<g id="skill-icons:instagram">
<g id="Group">
<path id="Vector" d="M21.0011 9C17.7421 9 17.333 9.01428 16.0531 9.07248C14.7756 9.13104 13.9036 9.33324 13.1406 9.63C12.3512 9.93648 11.6818 10.3465 11.0148 11.0137C10.3472 11.6808 9.9372 12.3503 9.62976 13.1393C9.33216 13.9025 9.12972 14.7749 9.07224 16.0518C9.015 17.3318 9 17.741 9 21.0001C9 24.2592 9.0144 24.667 9.07248 25.9469C9.13128 27.2244 9.33348 28.0964 9.63 28.8594C9.93672 29.6488 10.3468 30.3182 11.014 30.9852C11.6808 31.6528 12.3503 32.0638 13.139 32.3702C13.9026 32.667 14.7748 32.8692 16.052 32.9278C17.3321 32.986 17.7408 33.0002 20.9996 33.0002C24.259 33.0002 24.6667 32.986 25.9466 32.9278C27.2242 32.8692 28.0972 32.667 28.8607 32.3702C29.6497 32.0638 30.3182 31.6528 30.985 30.9852C31.6525 30.3182 32.0624 29.6488 32.37 28.8598C32.665 28.0964 32.8675 27.2242 32.9275 25.9471C32.985 24.6672 33 24.2592 33 21.0001C33 17.741 32.985 17.3321 32.9275 16.052C32.8675 14.7745 32.665 13.9026 32.37 13.1396C32.0624 12.3503 31.6525 11.6808 30.985 11.0137C30.3175 10.3463 29.65 9.93624 28.86 9.63012C28.095 9.33324 27.2225 9.13092 25.945 9.07248C24.6649 9.01428 24.2574 9 20.9974 9H21.0011ZM19.9246 11.1625C20.2441 11.162 20.6006 11.1625 21.0011 11.1625C24.2052 11.1625 24.5849 11.174 25.8502 11.2315C27.0202 11.285 27.6552 11.4805 28.0782 11.6448C28.6382 11.8622 29.0375 12.1223 29.4572 12.5424C29.8772 12.9624 30.1372 13.3624 30.3552 13.9224C30.5195 14.3448 30.7152 14.9798 30.7685 16.1498C30.826 17.4149 30.8384 17.7948 30.8384 20.9974C30.8384 24.1999 30.826 24.58 30.7685 25.8449C30.715 27.0149 30.5195 27.6499 30.3552 28.0724C30.1378 28.6325 29.8772 29.0312 29.4572 29.451C29.0372 29.871 28.6385 30.1309 28.0782 30.3485C27.6557 30.5135 27.0202 30.7085 25.8502 30.762C24.5851 30.8195 24.2052 30.832 21.0011 30.832C17.7968 30.832 17.417 30.8195 16.1521 30.762C14.9821 30.708 14.3471 30.5125 13.9237 30.3482C13.3638 30.1307 12.9637 29.8708 12.5437 29.4508C12.1237 29.0308 11.8638 28.6318 11.6458 28.0715C11.4815 27.649 11.2858 27.0139 11.2325 25.8439C11.175 24.5789 11.1635 24.199 11.1635 20.9944C11.1635 17.7899 11.175 17.4119 11.2325 16.1468C11.286 14.9768 11.4815 14.3418 11.6458 13.9188C11.8633 13.3588 12.1237 12.9588 12.5438 12.5388C12.9638 12.1188 13.3638 11.8588 13.9238 11.6408C14.3468 11.4758 14.9821 11.2808 16.1521 11.2271C17.2591 11.177 17.6881 11.162 19.9246 11.1595V11.1625ZM27.4067 13.155C26.6117 13.155 25.9667 13.7994 25.9667 14.5945C25.9667 15.3895 26.6117 16.0345 27.4067 16.0345C28.2017 16.0345 28.8467 15.3895 28.8467 14.5945C28.8467 13.7995 28.2017 13.1545 27.4067 13.1545V13.155ZM21.0011 14.8375C17.5979 14.8375 14.8386 17.5968 14.8386 21.0001C14.8386 24.4034 17.5979 27.1614 21.0011 27.1614C24.4044 27.1614 27.1627 24.4034 27.1627 21.0001C27.1627 17.5969 24.4042 14.8375 21.0008 14.8375H21.0011ZM21.0011 17C23.2102 17 25.0012 18.7908 25.0012 21.0001C25.0012 23.2092 23.2102 25.0002 21.0011 25.0002C18.7919 25.0002 17.0011 23.2092 17.0011 21.0001C17.0011 18.7908 18.7919 17 21.0011 17Z" fill="white"/>
</g>
</g>
</svg>
