<svg width="81" height="85" viewBox="0 0 81 85" fill="none" xmlns="http://www.w3.org/2000/svg">
<path d="M35.6769 1.23908C38.66 -0.413025 42.3353 -0.413025 45.3183 1.23908L75.3381 17.8648C78.3211 19.5169 80.1588 22.5701 80.1588 25.8743V59.1257C80.1588 62.4299 78.3211 65.4831 75.3381 67.1352L45.3183 83.7609C42.3353 85.413 38.66 85.413 35.6769 83.7609L5.65714 67.1352C2.67407 65.4831 0.836426 62.4299 0.836426 59.1257V25.8743C0.836426 22.5701 2.67407 19.5169 5.65714 17.8648L35.6769 1.23908Z" fill="#5C8ABD"/>
<path d="M35.6768 9.02734C38.6599 7.37524 42.3352 7.37524 45.3182 9.02734L68.3066 21.7589C71.2897 23.411 73.1273 26.4642 73.1273 29.7684V55.2316C73.1273 58.5358 71.2897 61.589 68.3066 63.2411L45.3182 75.9726C42.3352 77.6247 38.6599 77.6247 35.6768 75.9726L12.6884 63.2411C9.70532 61.589 7.86768 58.5358 7.86768 55.2316V29.7684C7.86768 26.4642 9.70532 23.411 12.6884 21.7589L35.6768 9.02734Z" fill="white"/>
<path d="M37.3262 17.0664C37.3262 15.4534 38.6893 14.1458 40.3708 14.1458C42.0524 14.1458 43.4155 15.4534 43.4155 17.0664V67.9337C43.4155 69.5467 42.0524 70.8543 40.3708 70.8543C38.6893 70.8543 37.3262 69.5467 37.3262 67.9337V17.0664Z" fill="#F7DA10"/>
<path d="M49.5044 25.0981C49.5044 23.4851 50.8675 22.1775 52.5491 22.1775C54.2306 22.1775 55.5937 23.4851 55.5937 25.0981V48.463C55.5937 50.076 54.2306 51.3836 52.5491 51.3836C50.8675 51.3836 49.5044 50.076 49.5044 48.463V25.0981Z" fill="#64C168"/>
<path d="M25.4009 38.971C25.4009 37.358 26.764 36.0504 28.4455 36.0504C30.1271 36.0504 31.4902 37.358 31.4902 38.971V62.3359C31.4902 63.9489 30.1271 65.2565 28.4455 65.2565C26.764 65.2565 25.4009 63.9489 25.4009 62.3359V38.971Z" fill="#E58227"/>
<path d="M61.4297 29.7224C61.4297 28.1094 62.7928 26.8018 64.4743 26.8018C66.1559 26.8018 67.519 28.1094 67.519 29.7224V32.8864C67.519 34.4994 66.1559 35.807 64.4743 35.807C62.7928 35.807 61.4297 34.4994 61.4297 32.8864V29.7224Z" fill="#964195"/>
<path d="M13.4761 54.5476C13.4761 52.9346 14.8392 51.627 16.5207 51.627C18.2023 51.627 19.5654 52.9346 19.5654 54.5476V57.7115C19.5654 59.3246 18.2023 60.6322 16.5207 60.6322C14.8392 60.6322 13.4761 59.3246 13.4761 57.7115V54.5476Z" fill="#D10D3A"/>
<path d="M49.5044 58.9284C49.5044 57.3154 50.8675 56.0078 52.5491 56.0078C54.2306 56.0078 55.5937 57.3154 55.5937 58.9284V62.3358C55.5937 63.9488 54.2306 65.2564 52.5491 65.2564C50.8675 65.2564 49.5044 63.9488 49.5044 62.3358V58.9284Z" fill="#64C168"/>
<path d="M25.4009 25.0981C25.4009 23.4851 26.764 22.1775 28.4455 22.1775C30.1271 22.1775 31.4902 23.4851 31.4902 25.0981V28.5055C31.4902 30.1185 30.1271 31.4261 28.4455 31.4261C26.764 31.4261 25.4009 30.1185 25.4009 28.5055V25.0981Z" fill="#E58227"/>
<path d="M61.4297 42.6217C61.4297 41.0087 62.7928 39.7011 64.4743 39.7011C66.1559 39.7011 67.519 41.0087 67.519 42.6217V57.7115C67.519 59.3245 66.1559 60.6321 64.4743 60.6321C62.7928 60.6321 61.4297 59.3245 61.4297 57.7115V42.6217Z" fill="#964195"/>
<path d="M13.4761 29.7224C13.4761 28.1094 14.8392 26.8018 16.5207 26.8018C18.2023 26.8018 19.5654 28.1094 19.5654 29.7224V44.8122C19.5654 46.4252 18.2023 47.7328 16.5207 47.7328C14.8392 47.7328 13.4761 46.4252 13.4761 44.8122V29.7224Z" fill="#D10D3A"/>
</svg>
