<svg width="406" height="155" viewBox="0 0 406 155" fill="none" xmlns="http://www.w3.org/2000/svg">
<path d="M68.3127 6.0946e-07C65.267 -0.000811295 62.2764 0.809588 59.6506 2.34729L8.4446 32.2997C5.87778 33.8098 3.74949 35.9594 2.26891 38.5372C0.788323 41.115 0.0064038 44.0324 0 47.0025L0 107.088C0.0064038 110.058 0.788323 112.975 2.26891 115.553C3.74949 118.131 5.87778 120.28 8.4446 121.791L59.6506 151.743C62.2761 153.282 65.2667 154.093 68.3127 154.093C71.3587 154.093 74.3492 153.282 76.9747 151.743L128.176 121.791C130.743 120.281 132.872 118.131 134.354 115.554C135.835 112.976 136.618 110.058 136.625 107.088V47.0025C136.618 44.032 135.835 41.1145 134.354 38.5367C132.872 35.9589 130.743 33.8095 128.176 32.2997L76.9747 2.34729C74.3485 0.81075 71.3582 0.000438556 68.3127 6.0946e-07V6.0946e-07Z" fill="white"/>
<path d="M68.3131 2.87305C65.378 2.88044 62.4982 3.66947 59.972 5.15843L10.6765 33.9707C8.20602 35.4242 6.15755 37.4931 4.73236 39.9741C3.30718 42.4551 2.55431 45.2628 2.54773 48.1215V105.968C2.55431 108.827 3.30718 111.634 4.73236 114.115C6.15755 116.596 8.20602 118.665 10.6765 120.119L59.972 148.957C62.5 150.436 65.3787 151.216 68.3105 151.216C71.2423 151.216 74.1209 150.436 76.6489 148.957L125.944 120.119C128.42 118.669 130.475 116.602 131.905 114.12C133.335 111.639 134.091 108.829 134.099 105.968V48.1215C134.094 45.2626 133.341 42.4545 131.916 39.9733C130.491 37.4921 128.442 35.4234 125.97 33.9707L76.6282 5.15843C74.1014 3.67845 71.2234 2.89834 68.2923 2.89884L68.3131 2.87305Z" fill="white"/>
<path d="M68.3131 13.5055C69.3453 13.5043 70.359 13.7786 71.2487 14.2999L120.544 43.138C121.415 43.6487 122.138 44.3771 122.64 45.251C123.142 46.125 123.407 47.1144 123.407 48.1215V105.968C123.407 106.975 123.142 107.964 122.64 108.838C122.138 109.712 121.415 110.441 120.544 110.951L71.2487 139.805C70.3585 140.325 69.3451 140.599 68.3131 140.599C67.281 140.599 66.2677 140.325 65.3774 139.805L16.0819 110.967C15.2097 110.457 14.4866 109.729 13.9843 108.855C13.482 107.981 13.218 106.991 13.2187 105.983V48.1215C13.218 47.1141 13.482 46.1241 13.9843 45.2499C14.4866 44.3756 15.2097 43.6476 16.0819 43.138L65.3774 14.2999C66.2672 13.7786 67.2808 13.5043 68.3131 13.5055V13.5055ZM68.3131 2.87305C65.378 2.88044 62.4982 3.66947 59.972 5.15843L10.6765 33.9707C8.20602 35.4242 6.15755 37.4931 4.73236 39.9741C3.30718 42.4551 2.55431 45.2628 2.54773 48.1215V105.968C2.55431 108.827 3.30718 111.634 4.73236 114.115C6.15755 116.596 8.20602 118.665 10.6765 120.119L59.972 148.957C62.5 150.436 65.3787 151.216 68.3105 151.216C71.2423 151.216 74.1209 150.436 76.6489 148.957L125.944 120.119C128.42 118.669 130.475 116.602 131.905 114.12C133.335 111.639 134.091 108.829 134.099 105.968V48.1215C134.094 45.2626 133.341 42.4545 131.916 39.9733C130.491 37.4921 128.442 35.4234 125.97 33.9707L76.6282 5.15843C74.1014 3.67845 71.2234 2.89834 68.2923 2.89884L68.3131 2.87305Z" fill="#3D67AD"/>
<path d="M68.344 128.481C66.9635 128.48 65.6397 127.934 64.6625 126.962C63.6853 125.99 63.1344 124.672 63.1302 123.297V30.829C63.1302 29.4499 63.6801 28.1272 64.6588 27.152C65.6376 26.1768 66.9651 25.6289 68.3492 25.6289C69.7334 25.6289 71.0608 26.1768 72.0396 27.152C73.0183 28.1272 73.5682 29.4499 73.5682 30.829V123.297C73.5641 124.674 73.0117 125.993 72.0323 126.965C71.0529 127.938 69.7264 128.483 68.344 128.481V128.481Z" fill="#FDD207"/>
<path d="M27.7158 84.7398C26.3316 84.7398 25.0042 84.1919 24.0254 83.2167C23.0467 82.2415 22.4968 80.9188 22.4968 79.5396V53.9413C22.4968 52.5622 23.0467 51.2395 24.0254 50.2643C25.0042 49.2891 26.3316 48.7412 27.7158 48.7412C29.1 48.7412 30.4274 49.2891 31.4062 50.2643C32.3849 51.2395 32.9348 52.5622 32.9348 53.9413V79.5396C32.9348 80.9188 32.3849 82.2415 31.4062 83.2167C30.4274 84.1919 29.1 84.7398 27.7158 84.7398V84.7398Z" fill="#E32439"/>
<path d="M27.7158 105.37C26.3316 105.37 25.0042 104.822 24.0254 103.847C23.0467 102.871 22.4968 101.549 22.4968 100.17V94.4072C22.4968 93.028 23.0467 91.7053 24.0254 90.7301C25.0042 89.7549 26.3316 89.207 27.7158 89.207C29.1 89.207 30.4274 89.7549 31.4062 90.7301C32.3849 91.7053 32.9348 93.028 32.9348 94.4072V100.185C32.9307 101.562 32.379 102.88 31.4007 103.852C30.4224 104.824 29.0973 105.37 27.7158 105.37V105.37Z" fill="#E32439"/>
<path d="M48.0326 116.926C46.6484 116.926 45.3209 116.378 44.3422 115.403C43.3635 114.427 42.8136 113.105 42.8136 111.726V65.5175C42.8136 64.1384 43.3635 62.8157 44.3422 61.8405C45.3209 60.8653 46.6484 60.3174 48.0326 60.3174C49.4167 60.3174 50.7442 60.8653 51.7229 61.8405C52.7017 62.8157 53.2515 64.1384 53.2515 65.5175V111.746C53.2461 113.122 52.6938 114.439 51.7156 115.41C50.7375 116.381 49.4131 116.926 48.0326 116.926V116.926Z" fill="#EF8721"/>
<path d="M48.0326 53.3638C46.6484 53.3638 45.3209 52.8159 44.3422 51.8407C43.3635 50.8655 42.8136 49.5428 42.8136 48.1636V42.3857C42.8136 41.0065 43.3635 39.6838 44.3422 38.7086C45.3209 37.7334 46.6484 37.1855 48.0326 37.1855C49.4167 37.1855 50.7442 37.7334 51.7229 38.7086C52.7017 39.6838 53.2515 41.0065 53.2515 42.3857V48.1636C53.2515 49.5428 52.7017 50.8655 51.7229 51.8407C50.7442 52.8159 49.4167 53.3638 48.0326 53.3638V53.3638Z" fill="#EF8721"/>
<path d="M88.6283 93.8145C87.2441 93.8145 85.9167 93.2666 84.9379 92.2914C83.9592 91.3161 83.4093 89.9935 83.4093 88.6143V42.3857C83.4093 41.7028 83.5443 41.0266 83.8066 40.3957C84.0688 39.7648 84.4533 39.1915 84.9379 38.7086C85.4225 38.2258 85.9979 37.8427 86.6311 37.5814C87.2643 37.3201 87.9429 37.1855 88.6283 37.1855C89.3136 37.1855 89.9923 37.3201 90.6255 37.5814C91.2587 37.8427 91.834 38.2258 92.3187 38.7086C92.8033 39.1915 93.1877 39.7648 93.45 40.3957C93.7123 41.0266 93.8473 41.7028 93.8473 42.3857V88.6143C93.8473 89.9935 93.2974 91.3161 92.3187 92.2914C91.3399 93.2666 90.0124 93.8145 88.6283 93.8145V93.8145Z" fill="#5FB465"/>
<path d="M88.6283 116.926C87.2441 116.926 85.9167 116.378 84.9379 115.403C83.9592 114.428 83.4093 113.105 83.4093 111.726V105.948C83.4093 105.265 83.5443 104.589 83.8066 103.958C84.0688 103.327 84.4533 102.754 84.9379 102.271C85.4225 101.788 85.9979 101.405 86.6311 101.144C87.2643 100.883 87.9429 100.748 88.6283 100.748C89.3136 100.748 89.9923 100.883 90.6255 101.144C91.2587 101.405 91.834 101.788 92.3187 102.271C92.8033 102.754 93.1877 103.327 93.45 103.958C93.7123 104.589 93.8473 105.265 93.8473 105.948V111.726C93.8473 113.105 93.2974 114.428 92.3187 115.403C91.3399 116.378 90.0124 116.926 88.6283 116.926V116.926Z" fill="#5FB465"/>
<path d="M108.904 105.37C107.52 105.368 106.194 104.82 105.215 103.845C104.237 102.87 103.687 101.548 103.685 100.17V74.5712C103.685 73.1921 104.235 71.8694 105.214 70.8942C106.193 69.919 107.52 69.3711 108.904 69.3711C110.288 69.3711 111.616 69.919 112.595 70.8942C113.573 71.8694 114.123 73.1921 114.123 74.5712V100.17C114.123 101.549 113.573 102.871 112.595 103.847C111.616 104.822 110.288 105.37 108.904 105.37V105.37Z" fill="#9B5099"/>
<path d="M108.904 64.9194C107.52 64.9194 106.193 64.3715 105.214 63.3963C104.235 62.4211 103.685 61.0984 103.685 59.7193V53.9413C103.685 52.5622 104.235 51.2395 105.214 50.2643C106.193 49.2891 107.52 48.7412 108.904 48.7412C110.288 48.7412 111.616 49.2891 112.595 50.2643C113.573 51.2395 114.123 52.5622 114.123 53.9413V59.7193C114.123 61.0984 113.573 62.4211 112.595 63.3963C111.616 64.3715 110.288 64.9194 108.904 64.9194V64.9194Z" fill="#9B5099"/>
<path d="M161.91 42.2278C161.819 42.1414 161.747 42.0373 161.698 41.9219C161.649 41.8066 161.624 41.6824 161.626 41.5571V16.7636C161.621 16.5032 161.715 16.2508 161.89 16.0568C161.978 15.9629 162.086 15.889 162.206 15.8401C162.325 15.7911 162.454 15.7683 162.583 15.7731H172.664C176.461 15.7731 179.395 16.6707 181.466 18.466C183.537 20.2613 184.636 22.8407 184.764 26.2043C184.79 26.9472 184.805 27.9274 184.805 29.15C184.805 30.3727 184.805 31.3374 184.764 32.0493C184.509 39.031 180.539 42.5201 172.856 42.5167H162.583C162.457 42.5172 162.332 42.4919 162.217 42.4422C162.101 42.3925 161.996 42.3195 161.91 42.2278V42.2278ZM172.664 36.7852C174.276 36.7852 175.465 36.4017 176.231 35.6347C176.998 34.8678 177.407 33.6468 177.458 31.9719C177.51 31.2291 177.536 30.2747 177.536 29.1036C177.536 27.9325 177.51 26.9885 177.458 26.2765C177.407 24.6463 176.965 23.4426 176.133 22.6653C175.301 21.8881 174.081 21.5011 172.473 21.5046H168.848V36.7852H172.664Z" fill="black"/>
<path d="M189.477 42.2279C189.386 42.1415 189.314 42.0374 189.265 41.9221C189.216 41.8067 189.191 41.6825 189.192 41.5572V16.7276C189.188 16.5996 189.211 16.472 189.26 16.3536C189.309 16.2352 189.383 16.1288 189.477 16.0415C189.657 15.8672 189.899 15.7707 190.15 15.7732H195.633C195.76 15.7681 195.887 15.7893 196.006 15.8355C196.124 15.8816 196.232 15.9518 196.322 16.0414C196.412 16.1311 196.482 16.2383 196.529 16.3564C196.575 16.4745 196.596 16.6009 196.591 16.7276V41.5572C196.593 41.6812 196.57 41.8043 196.524 41.9194C196.478 42.0345 196.409 42.1393 196.322 42.2279C196.234 42.3217 196.127 42.3955 196.009 42.4445C195.89 42.4934 195.762 42.5163 195.633 42.5116H190.13C190.007 42.5095 189.887 42.4833 189.775 42.4346C189.663 42.3859 189.562 42.3157 189.477 42.2279V42.2279Z" fill="black"/>
<path d="M204.337 40.2006C202.242 38.4054 201.131 35.8397 201.003 32.5036C200.975 31.7917 200.962 30.6327 200.962 29.0265C200.962 27.4204 200.975 26.2493 201.003 25.5133C201.1 22.3045 202.218 19.8145 204.358 18.0433C206.498 16.2721 209.392 15.3882 213.041 15.3916C215.239 15.343 217.425 15.7451 219.461 16.573C221.089 17.2174 222.527 18.2628 223.639 19.6116C224.535 20.6875 225.066 22.0185 225.156 23.4137C225.156 23.5248 225.133 23.6347 225.09 23.7371C225.046 23.8394 224.983 23.9323 224.904 24.0104C224.825 24.0885 224.731 24.1503 224.627 24.1922C224.524 24.234 224.413 24.2553 224.302 24.2546H218.368C218.161 24.2652 217.955 24.2188 217.773 24.1204C217.614 24.0147 217.478 23.8777 217.374 23.7181C217.052 22.9894 216.543 22.3579 215.899 21.8867C215.055 21.3295 214.051 21.0615 213.041 21.1231C210.072 21.1231 208.538 22.6502 208.438 25.7042C208.412 26.4161 208.402 27.515 208.402 28.9904C208.402 30.4659 208.402 31.5699 208.438 32.3127C208.541 35.5456 210.095 37.1638 213.098 37.1672C214.369 37.2348 215.622 36.8407 216.624 36.0581C217.493 35.3186 217.928 34.1974 217.928 32.6945V32.0084H214.516C214.385 32.0097 214.254 31.9849 214.132 31.9354C214.01 31.8858 213.9 31.8125 213.807 31.7198C213.714 31.6271 213.64 31.5168 213.59 31.3953C213.541 31.2739 213.516 31.1438 213.517 31.0127V28.0154C213.516 27.8843 213.541 27.7542 213.59 27.6327C213.64 27.5113 213.714 27.401 213.807 27.3083C213.9 27.2155 214.01 27.1423 214.132 27.0927C214.254 27.0432 214.385 27.0183 214.516 27.0197H224.302C224.434 27.0179 224.564 27.0425 224.686 27.0921C224.808 27.1418 224.919 27.2154 225.011 27.3086C225.105 27.4008 225.178 27.5111 225.227 27.6327C225.276 27.7542 225.3 27.8845 225.296 28.0154V32.4469C225.354 34.4265 224.828 36.3797 223.784 38.0649C222.744 39.66 221.257 40.9157 219.508 41.6761C217.473 42.5397 215.277 42.9618 213.067 42.9142C209.342 42.9005 206.432 41.9959 204.337 40.2006Z" fill="black"/>
<path d="M229.814 42.2279C229.722 42.1426 229.648 42.0388 229.598 41.9233C229.548 41.8077 229.523 41.683 229.524 41.5572V16.7276C229.519 16.599 229.543 16.4709 229.593 16.3524C229.643 16.2338 229.718 16.1276 229.814 16.0415C229.902 15.9551 230.007 15.8869 230.121 15.8409C230.236 15.7948 230.359 15.7718 230.482 15.7732H235.965C236.092 15.7681 236.219 15.7893 236.338 15.8355C236.456 15.8816 236.564 15.9518 236.654 16.0414C236.744 16.1311 236.814 16.2383 236.861 16.3564C236.907 16.4745 236.928 16.6009 236.923 16.7276V41.5572C236.925 41.6812 236.902 41.8043 236.856 41.9194C236.81 42.0345 236.741 42.1393 236.654 42.2279C236.566 42.3217 236.459 42.3955 236.341 42.4445C236.222 42.4934 236.094 42.5163 235.965 42.5116H230.482C230.357 42.5125 230.234 42.4877 230.119 42.4389C230.004 42.3901 229.9 42.3183 229.814 42.2279Z" fill="black"/>
<path d="M248.33 42.2491C248.236 42.1608 248.162 42.0535 248.112 41.9342C248.063 41.815 248.04 41.6867 248.045 41.5579V22.0006H241.314C241.052 22.0081 240.797 21.9117 240.605 21.7323C240.511 21.645 240.437 21.5386 240.388 21.4202C240.339 21.3018 240.316 21.1742 240.32 21.0462V16.7643C240.317 16.6335 240.341 16.5034 240.39 16.382C240.439 16.2605 240.512 16.1502 240.605 16.0577C240.698 15.9651 240.809 15.8923 240.931 15.8435C241.053 15.7947 241.183 15.771 241.314 15.7738H262.097C262.229 15.7701 262.359 15.7933 262.482 15.8421C262.604 15.891 262.714 15.9643 262.807 16.0576C262.901 16.1495 262.975 16.2596 263.025 16.3812C263.075 16.5027 263.099 16.6331 263.096 16.7643V21.0462C263.1 21.1746 263.076 21.3023 263.026 21.4206C262.976 21.539 262.901 21.6453 262.807 21.7323C262.712 21.8216 262.601 21.8913 262.479 21.9373C262.357 21.9834 262.227 22.0049 262.097 22.0006H255.366V41.5579C255.37 41.687 255.346 41.8155 255.296 41.9347C255.246 42.0539 255.171 42.1611 255.076 42.2491C254.883 42.4256 254.629 42.5201 254.367 42.5122H249.039C248.778 42.5169 248.525 42.4229 248.33 42.2491V42.2491Z" fill="black"/>
<path d="M261.714 42.2644C261.635 42.1949 261.572 42.11 261.529 42.015C261.485 41.9199 261.462 41.8169 261.46 41.7124C261.456 41.5957 261.47 41.4791 261.501 41.3667L270.433 16.8827C270.52 16.5459 270.724 16.2503 271.008 16.0476C271.291 15.8449 271.638 15.7479 271.986 15.7736H277.971C278.319 15.749 278.665 15.8464 278.949 16.0489C279.232 16.2514 279.436 16.5464 279.524 16.8827L288.456 41.3667C288.487 41.4791 288.501 41.5957 288.497 41.7124C288.483 41.9205 288.393 42.1163 288.244 42.2633C288.095 42.4104 287.898 42.4988 287.689 42.512H282.703C282.426 42.5254 282.151 42.4514 281.918 42.3005C281.684 42.1496 281.505 41.9294 281.404 41.6711L280.022 37.967H269.977L268.595 41.6711C268.493 41.9329 268.31 42.1555 268.073 42.3068C267.835 42.458 267.556 42.5299 267.274 42.512H262.288C262.18 42.5137 262.073 42.4925 261.974 42.4498C261.875 42.4071 261.786 42.3439 261.714 42.2644V42.2644ZM271.551 32.2355H278.375L274.958 22.4956L271.551 32.2355Z" fill="black"/>
<path d="M291.656 42.2279C291.564 42.1418 291.491 42.0379 291.441 41.9225C291.392 41.8072 291.366 41.6828 291.366 41.5572V16.7276C291.362 16.5992 291.386 16.4715 291.436 16.3532C291.486 16.2348 291.561 16.1285 291.656 16.0415C291.744 15.9551 291.849 15.8869 291.963 15.8409C292.078 15.7948 292.2 15.7718 292.324 15.7732H297.693C297.82 15.7681 297.947 15.7893 298.066 15.8355C298.184 15.8816 298.292 15.9518 298.382 16.0414C298.472 16.1311 298.542 16.2383 298.589 16.3564C298.635 16.4745 298.656 16.6009 298.651 16.7276V36.517H310.156C310.287 36.5142 310.417 36.5379 310.539 36.5867C310.661 36.6355 310.772 36.7083 310.865 36.8009C310.958 36.8934 311.031 37.0037 311.08 37.1252C311.129 37.2466 311.152 37.3767 311.15 37.5075V41.5572C311.154 41.686 311.132 41.8144 311.082 41.9336C311.033 42.0528 310.959 42.1602 310.865 42.2485C310.67 42.4223 310.417 42.5162 310.156 42.5116H292.324C292.199 42.5125 292.075 42.4877 291.961 42.4389C291.846 42.3901 291.742 42.3183 291.656 42.2279V42.2279Z" fill="black"/>
<path d="M164.996 72.5259C162.901 70.7306 161.789 68.165 161.662 64.8289C161.637 64.117 161.625 62.958 161.625 61.3518C161.625 59.7457 161.637 58.5746 161.662 57.8386C161.765 54.6298 162.884 52.1398 165.017 50.3686C167.15 48.5974 170.044 47.7135 173.699 47.7169C175.9 47.6676 178.087 48.0697 180.125 48.8983C181.753 49.5427 183.191 50.5881 184.303 51.9369C185.197 53.0133 185.727 54.3443 185.815 55.739C185.816 55.8495 185.795 55.9591 185.752 56.0611C185.709 56.163 185.646 56.2553 185.566 56.3322C185.49 56.4121 185.397 56.4753 185.295 56.5179C185.192 56.5605 185.082 56.5816 184.971 56.5799H179.032C178.825 56.5913 178.619 56.5449 178.437 56.4457C178.278 56.3388 178.14 56.2022 178.033 56.0434C177.714 55.3127 177.204 54.6804 176.557 54.212C175.713 53.6548 174.71 53.3868 173.699 53.4484C170.738 53.4484 169.2 54.9961 169.102 58.0295C169.076 58.7414 169.06 59.8403 169.06 61.3157C169.06 62.7912 169.06 63.8952 169.102 64.638C169.198 67.8709 170.752 69.4891 173.762 69.4925C175.033 69.5601 176.286 69.166 177.287 68.3834C178.157 67.6439 178.592 66.5227 178.592 65.0198V64.3336H175.18C175.049 64.3365 174.918 64.3128 174.796 64.264C174.675 64.2152 174.564 64.1424 174.471 64.0498C174.378 63.9573 174.305 63.8469 174.256 63.7255C174.207 63.6041 174.183 63.474 174.186 63.3431V60.3613C174.184 60.2304 174.208 60.1005 174.257 59.9791C174.307 59.8577 174.38 59.7473 174.472 59.6545C174.565 59.5617 174.675 59.4883 174.797 59.4387C174.919 59.3891 175.049 59.3643 175.18 59.3657H184.95C185.082 59.3643 185.212 59.3891 185.334 59.4386C185.456 59.4882 185.567 59.5615 185.66 59.6542C185.753 59.7469 185.827 59.8573 185.876 59.9787C185.926 60.1001 185.951 60.2302 185.95 60.3613V64.7928C186.002 66.7659 185.474 68.7113 184.432 70.3902C183.395 71.9876 181.907 73.2439 180.156 74.0014C178.122 74.868 175.926 75.2919 173.715 75.2447C169.997 75.2309 167.091 74.3247 164.996 72.5259Z" fill="black"/>
<path d="M190.474 74.554C190.383 74.4679 190.309 74.3639 190.26 74.2486C190.21 74.1332 190.184 74.0089 190.184 73.8833V49.0898C190.181 48.8287 190.277 48.5762 190.454 48.383C190.542 48.2891 190.65 48.2152 190.77 48.1662C190.889 48.1173 191.018 48.0945 191.147 48.0993H209.243C209.374 48.0964 209.505 48.1201 209.627 48.1689C209.749 48.2177 209.859 48.2906 209.952 48.3831C210.045 48.4756 210.118 48.586 210.167 48.7074C210.216 48.8289 210.24 48.9589 210.237 49.0898V52.8712C210.242 53 210.219 53.1284 210.17 53.2476C210.121 53.3668 210.047 53.4742 209.952 53.5625C209.758 53.7381 209.505 53.834 209.243 53.8308H197.128V58.6801H208.399C208.531 58.6776 208.662 58.702 208.784 58.7517C208.906 58.8013 209.016 58.8753 209.108 58.969C209.202 59.061 209.276 59.1713 209.325 59.2929C209.374 59.4145 209.397 59.5448 209.393 59.6758V63.1477C209.395 63.2786 209.371 63.4086 209.322 63.53C209.273 63.6514 209.2 63.7617 209.107 63.8545C209.014 63.9473 208.904 64.0207 208.782 64.0703C208.661 64.1199 208.53 64.1447 208.399 64.1434H197.128V69.1113H209.554C209.685 69.1093 209.815 69.1334 209.937 69.1824C210.059 69.2314 210.17 69.3042 210.263 69.3965C210.356 69.4888 210.43 69.5988 210.48 69.72C210.529 69.8411 210.554 69.971 210.553 70.1019V73.8833C210.557 74.0125 210.533 74.1409 210.483 74.2601C210.433 74.3794 210.358 74.4866 210.263 74.5746C210.068 74.7483 209.815 74.8423 209.554 74.8377H191.163C191.035 74.8411 190.907 74.8176 190.788 74.7687C190.67 74.7198 190.563 74.6467 190.474 74.554Z" fill="black"/>
<path d="M215.089 74.5534C214.998 74.4671 214.926 74.363 214.877 74.2476C214.828 74.1322 214.803 74.008 214.805 73.8828V49.0892C214.8 48.8289 214.894 48.5764 215.069 48.3825C215.157 48.2886 215.265 48.2146 215.385 48.1657C215.504 48.1168 215.633 48.0939 215.762 48.0987H220.091C220.355 48.0845 220.618 48.1453 220.849 48.274C221.08 48.4028 221.27 48.5942 221.396 48.8261L230.446 63.0956V49.0892C230.438 48.8274 230.535 48.5733 230.715 48.3825C230.803 48.2887 230.91 48.2148 231.029 48.1658C231.147 48.1169 231.275 48.094 231.404 48.0987H236.271C236.4 48.0939 236.529 48.1168 236.648 48.1657C236.768 48.2146 236.876 48.2886 236.965 48.3825C237.141 48.5756 237.237 48.8282 237.234 49.0892V73.8518C237.237 74.1128 237.141 74.3654 236.965 74.5586C236.876 74.6525 236.768 74.7264 236.648 74.7753C236.529 74.8243 236.4 74.8471 236.271 74.8423H231.942C231.679 74.8571 231.416 74.797 231.185 74.6692C230.954 74.5414 230.764 74.351 230.638 74.1201L221.629 60.4439V73.8879C221.632 74.0171 221.609 74.1455 221.559 74.2647C221.509 74.384 221.434 74.4912 221.339 74.5792C221.144 74.7529 220.891 74.8469 220.629 74.8423H215.762C215.636 74.8429 215.511 74.8175 215.396 74.7678C215.28 74.7181 215.176 74.6451 215.089 74.5534Z" fill="black"/>
<path d="M242.734 74.5539C242.643 74.4676 242.571 74.3635 242.522 74.2481C242.473 74.1327 242.448 74.0085 242.45 73.8833V49.0898C242.445 48.8294 242.539 48.5769 242.714 48.383C242.802 48.2891 242.91 48.2152 243.03 48.1662C243.149 48.1173 243.278 48.0945 243.407 48.0993H261.529C261.66 48.0964 261.791 48.1201 261.913 48.1689C262.034 48.2177 262.145 48.2906 262.238 48.3831C262.331 48.4756 262.404 48.586 262.453 48.7074C262.502 48.8289 262.526 48.9589 262.523 49.0898V52.8712C262.528 53 262.505 53.1283 262.456 53.2476C262.407 53.3668 262.332 53.4742 262.238 53.5625C262.044 53.7381 261.791 53.834 261.529 53.8308H249.413V58.6801H260.685C260.817 58.6787 260.947 58.7035 261.069 58.7531C261.191 58.8026 261.302 58.8759 261.395 58.9686C261.488 59.0614 261.561 59.1717 261.611 59.2931C261.661 59.4145 261.686 59.5446 261.684 59.6758V63.1477C261.687 63.279 261.663 63.4096 261.613 63.5312C261.563 63.6528 261.489 63.7629 261.394 63.8544C261.303 63.9492 261.192 64.0238 261.07 64.0735C260.948 64.1233 260.817 64.147 260.685 64.1433H249.387V69.1113H261.814C261.945 69.1092 262.075 69.1334 262.197 69.1824C262.319 69.2314 262.43 69.3042 262.523 69.3965C262.616 69.4888 262.69 69.5988 262.74 69.7199C262.789 69.8411 262.814 69.9709 262.813 70.1018V73.8833C262.817 74.0124 262.793 74.1409 262.743 74.2601C262.693 74.3793 262.618 74.4865 262.523 74.5746C262.328 74.7483 262.075 74.8423 261.814 74.8377H243.407C243.282 74.8389 243.157 74.8144 243.041 74.7655C242.925 74.7167 242.821 74.6447 242.734 74.5539V74.5539Z" fill="black"/>
<path d="M267.348 74.5539C267.257 74.4676 267.185 74.3635 267.136 74.2481C267.087 74.1327 267.062 74.0086 267.063 73.8833V49.0898C267.059 48.8294 267.153 48.5769 267.327 48.383C267.416 48.2891 267.524 48.2152 267.643 48.1662C267.763 48.1173 267.892 48.0945 268.021 48.0993H278.563C281.938 48.0993 284.577 48.8628 286.479 50.3898C288.381 51.9168 289.334 54.0698 289.337 56.8487C289.387 58.454 288.953 60.0373 288.089 61.3937C287.238 62.6583 286.051 63.6636 284.662 64.2981L289.839 73.615C289.911 73.745 289.952 73.8898 289.958 74.0381C289.957 74.2455 289.873 74.444 289.725 74.5901C289.654 74.6707 289.565 74.7346 289.466 74.7774C289.366 74.8202 289.259 74.8407 289.151 74.8377H283.74C283.406 74.8486 283.076 74.7549 282.798 74.5699C282.519 74.3849 282.306 74.1178 282.187 73.8059L277.972 65.5156H274.291V73.8781C274.295 74.0073 274.271 74.1357 274.221 74.255C274.171 74.3742 274.096 74.4814 274.001 74.5694C273.808 74.7459 273.554 74.8403 273.292 74.8325H268.021C267.896 74.8344 267.771 74.8107 267.656 74.7628C267.54 74.7148 267.435 74.6438 267.348 74.5539ZM278.526 59.9027C279.439 59.9668 280.34 59.6724 281.038 59.0825C281.332 58.7841 281.561 58.4275 281.709 58.0357C281.857 57.6438 281.921 57.2254 281.897 56.8074C281.918 56.382 281.852 55.9568 281.704 55.5571C281.557 55.1575 281.33 54.7914 281.038 54.4808C280.702 54.1705 280.306 53.9322 279.874 53.7804C279.442 53.6287 278.983 53.5668 278.526 53.5986H274.27V59.9027H278.526Z" fill="black"/>
<path d="M291.656 74.5896C291.579 74.5195 291.517 74.4343 291.475 74.3393C291.432 74.2444 291.409 74.1416 291.408 74.0376C291.403 73.9212 291.415 73.8047 291.444 73.6919L300.381 49.2079C300.468 48.8711 300.672 48.5755 300.956 48.3728C301.239 48.1701 301.586 48.0731 301.934 48.0988H307.914C308.262 48.0731 308.608 48.1701 308.892 48.3728C309.176 48.5755 309.38 48.8711 309.467 49.2079L318.404 73.6919C318.433 73.8047 318.445 73.9212 318.44 74.0376C318.439 74.1416 318.416 74.2444 318.373 74.3393C318.331 74.4343 318.269 74.5195 318.191 74.5896C318.121 74.666 318.035 74.7274 317.94 74.77C317.845 74.8125 317.742 74.8354 317.637 74.8372H312.651C312.374 74.8513 312.098 74.7782 311.864 74.6283C311.63 74.4784 311.449 74.2592 311.347 74.0014L309.928 70.318H299.894L298.517 74.0272C298.414 74.285 298.233 74.5042 297.999 74.6541C297.765 74.804 297.49 74.8771 297.212 74.863H292.226C292.117 74.8601 292.01 74.8342 291.912 74.7871C291.814 74.7399 291.727 74.6726 291.656 74.5896ZM301.494 64.5607H308.323L304.906 54.8414L301.494 64.5607Z" fill="black"/>
<path d="M324.78 74.5742C324.685 74.4861 324.61 74.3789 324.56 74.2597C324.51 74.1405 324.487 74.012 324.49 73.8829V54.3256H317.76C317.497 54.3331 317.242 54.2367 317.05 54.0574C316.956 53.9701 316.882 53.8636 316.833 53.7452C316.784 53.6268 316.761 53.4993 316.766 53.3712V49.0894C316.763 48.9585 316.786 48.8285 316.835 48.707C316.884 48.5856 316.957 48.4752 317.05 48.3827C317.143 48.2902 317.254 48.2173 317.376 48.1685C317.498 48.1197 317.628 48.096 317.76 48.0989H338.578C338.71 48.0968 338.84 48.1209 338.962 48.1699C339.084 48.2189 339.195 48.2917 339.288 48.384C339.381 48.4763 339.455 48.5863 339.504 48.7075C339.554 48.8286 339.579 48.9585 339.578 49.0894V53.3712C339.581 53.4996 339.558 53.6273 339.508 53.7456C339.457 53.864 339.383 53.9703 339.288 54.0574C339.096 54.2367 338.841 54.3331 338.578 54.3256H331.848V73.8829C331.851 74.012 331.828 74.1405 331.778 74.2597C331.728 74.3789 331.653 74.4861 331.558 74.5742C331.365 74.7507 331.11 74.8451 330.848 74.8373H325.49C325.228 74.8419 324.975 74.7479 324.78 74.5742V74.5742Z" fill="black"/>
<path d="M343.224 74.5533C343.132 74.4672 343.059 74.3633 343.009 74.2479C342.959 74.1326 342.934 74.0083 342.934 73.8827V49.053C342.93 48.9246 342.954 48.797 343.004 48.6786C343.054 48.5602 343.129 48.4539 343.224 48.3669C343.312 48.2805 343.416 48.2123 343.531 48.1663C343.645 48.1202 343.768 48.0973 343.892 48.0986H349.375C349.502 48.0928 349.629 48.1134 349.748 48.1593C349.867 48.2052 349.975 48.2753 350.065 48.3651C350.155 48.4549 350.226 48.5625 350.272 48.681C350.318 48.7994 350.338 48.9261 350.333 49.053V73.8827C350.336 74.132 350.241 74.3727 350.068 74.5533C349.98 74.6472 349.872 74.7211 349.752 74.7701C349.633 74.819 349.504 74.8418 349.375 74.8371H343.902C343.775 74.8393 343.65 74.8153 343.533 74.7664C343.416 74.7176 343.311 74.645 343.224 74.5533V74.5533Z" fill="black"/>
<path d="M358.078 72.5877C355.982 70.8302 354.871 68.2508 354.743 64.8494C354.716 64.1375 354.704 63.0421 354.707 61.5632C354.71 60.0843 354.723 58.9769 354.743 58.2409C354.847 54.8842 355.965 52.2927 358.098 50.4665C360.231 48.6402 363.093 47.7237 366.683 47.7168C370.234 47.7168 373.079 48.6265 375.215 50.4458C377.352 52.2652 378.47 54.8567 378.57 58.2203C378.617 59.7008 378.643 60.7997 378.643 61.5426C378.643 62.2854 378.617 63.4049 378.57 64.8288C378.443 68.2439 377.336 70.8234 375.251 72.5671C373.167 74.3108 370.31 75.1964 366.683 75.2239C363.045 75.2239 360.176 74.3452 358.078 72.5877ZM369.851 68.2852C370.642 67.4839 371.063 66.2561 371.115 64.6018C371.166 63.1263 371.192 62.0688 371.192 61.4291C371.192 60.7894 371.166 59.7576 371.115 58.3337C371.063 56.6829 370.643 55.4499 369.851 54.6503C369.434 54.2443 368.937 53.9281 368.392 53.7213C367.847 53.5146 367.265 53.4216 366.683 53.4483C366.092 53.4169 365.501 53.5075 364.946 53.7143C364.392 53.9212 363.887 54.2398 363.462 54.6503C362.67 55.4499 362.246 56.6829 362.199 58.3337C362.175 59.0491 362.161 60.0809 362.157 61.4291C362.154 62.7773 362.168 63.8348 362.199 64.6018C362.246 66.2578 362.67 67.4856 363.462 68.2852C363.887 68.6964 364.392 69.0158 364.946 69.2235C365.5 69.4312 366.091 69.5228 366.683 69.4924C367.266 69.5184 367.848 69.4246 368.393 69.217C368.938 69.0093 369.434 68.6921 369.851 68.2852V68.2852Z" fill="black"/>
<path d="M383.251 74.5541C383.159 74.468 383.086 74.3641 383.036 74.2487C382.986 74.1333 382.961 74.009 382.961 73.8834V49.0899C382.954 48.8281 383.05 48.574 383.23 48.3831C383.318 48.2896 383.425 48.2159 383.544 48.167C383.663 48.118 383.79 48.095 383.919 48.0994H388.253C388.517 48.0864 388.779 48.1477 389.01 48.2763C389.241 48.4049 389.43 48.5957 389.557 48.8268L398.602 63.0962V49.0899C398.599 48.8288 398.695 48.5763 398.872 48.3831C398.96 48.2892 399.068 48.2153 399.188 48.1664C399.307 48.1174 399.436 48.0946 399.565 48.0994H404.432C404.561 48.0946 404.689 48.1175 404.808 48.1665C404.926 48.2155 405.033 48.2893 405.121 48.3831C405.301 48.574 405.398 48.8281 405.39 49.0899V73.8525C405.398 74.1143 405.301 74.3684 405.121 74.5592C405.033 74.653 404.926 74.7269 404.808 74.7758C404.689 74.8248 404.561 74.8477 404.432 74.843H400.099C399.836 74.8573 399.574 74.7971 399.344 74.6693C399.114 74.5414 398.925 74.3512 398.799 74.1207L389.785 60.4446V73.8886C389.79 74.0174 389.767 74.1457 389.718 74.265C389.669 74.3842 389.595 74.4916 389.5 74.5799C389.306 74.7536 389.052 74.8476 388.791 74.843H383.919C383.794 74.8431 383.67 74.8176 383.555 74.7679C383.44 74.7182 383.336 74.6454 383.251 74.5541V74.5541Z" fill="black"/>
<path d="M164.562 107.261C162.605 105.331 161.635 102.394 161.652 98.4493V81.4663C161.637 81.1993 161.726 80.9366 161.901 80.7338C161.987 80.643 162.092 80.5717 162.208 80.5246C162.324 80.4774 162.449 80.4555 162.574 80.4603H164.588C164.725 80.4507 164.863 80.471 164.992 80.5198C165.12 80.5687 165.237 80.6448 165.333 80.743C165.429 80.8412 165.502 80.9591 165.548 81.0885C165.594 81.2178 165.611 81.3556 165.598 81.4921V98.537C165.598 101.288 166.234 103.324 167.508 104.645C168.782 105.966 170.594 106.635 172.945 106.652C175.271 106.652 177.071 105.976 178.345 104.624C179.618 103.273 180.255 101.244 180.255 98.537V81.4663C180.24 81.1993 180.329 80.9366 180.504 80.7338C180.597 80.6406 180.709 80.5682 180.832 80.521C180.955 80.4739 181.087 80.4532 181.218 80.4603H183.232C183.361 80.4564 183.488 80.4787 183.608 80.5257C183.727 80.5727 183.835 80.6435 183.926 80.7338C184.019 80.8309 184.092 80.946 184.139 81.0719C184.186 81.1979 184.207 81.332 184.201 81.4663V98.4493C184.201 102.384 183.227 105.321 181.28 107.261C179.334 109.2 176.555 110.169 172.945 110.165C169.32 110.165 166.526 109.197 164.562 107.261Z" fill="black"/>
<path d="M189.569 109.479C189.385 109.28 189.286 109.017 189.295 108.747V107.07C189.274 106.672 189.377 106.277 189.59 105.94C189.787 105.662 189.901 105.507 189.927 105.481L205.661 83.9737H190.646C190.518 83.9779 190.391 83.9561 190.272 83.9094C190.153 83.8628 190.045 83.7924 189.954 83.7025C189.863 83.6126 189.792 83.5051 189.745 83.3867C189.697 83.2683 189.674 83.1415 189.678 83.0141V81.4664C189.672 81.3322 189.692 81.198 189.74 81.072C189.787 80.9461 189.859 80.8311 189.952 80.7339C190.043 80.6437 190.152 80.5729 190.271 80.5258C190.39 80.4788 190.518 80.4566 190.646 80.4605H209.544C209.816 80.452 210.08 80.5502 210.28 80.7339C210.372 80.8313 210.444 80.9465 210.49 81.0725C210.536 81.1985 210.556 81.3325 210.549 81.4664V83.1379C210.537 83.6731 210.345 84.1888 210.005 84.603L194.426 106.234H210.005C210.14 106.228 210.274 106.249 210.401 106.296C210.527 106.343 210.643 106.415 210.74 106.508C210.83 106.598 210.899 106.705 210.946 106.823C210.992 106.941 211.014 107.067 211.01 107.194V108.788C211.014 108.917 210.99 109.046 210.94 109.165C210.89 109.284 210.815 109.391 210.72 109.479C210.524 109.656 210.269 109.752 210.005 109.747H190.263C190.135 109.752 190.008 109.731 189.889 109.684C189.769 109.638 189.661 109.568 189.569 109.479Z" fill="black"/>
<path d="M216.632 109.479C216.463 109.289 216.374 109.042 216.383 108.788V81.4461C216.367 81.179 216.456 80.9164 216.632 80.7135C216.718 80.6228 216.822 80.5515 216.938 80.5044C217.054 80.4572 217.179 80.4353 217.305 80.4401H228.768C231.736 80.4401 233.98 81.152 235.499 82.5759C236.253 83.2923 236.845 84.1608 237.235 85.1234C237.625 86.086 237.804 87.1205 237.761 88.1578C237.811 89.4301 237.492 90.6897 236.844 91.7871C236.196 92.8845 235.246 93.7735 234.106 94.3484C235.393 94.9953 236.473 95.9888 237.223 97.2162C237.972 98.4435 238.361 99.8556 238.346 101.292C238.365 102.783 237.995 104.253 237.274 105.559C236.541 106.864 235.439 107.925 234.106 108.613C232.562 109.4 230.844 109.789 229.109 109.742H217.305C217.18 109.749 217.056 109.728 216.94 109.683C216.824 109.638 216.719 109.568 216.632 109.479V109.479ZM228.136 92.8885C229.959 92.8885 231.339 92.4758 232.278 91.6503C232.76 91.2182 233.139 90.6838 233.386 90.0865C233.634 89.4892 233.743 88.8442 233.707 88.199C233.748 87.5773 233.642 86.9545 233.398 86.381C233.153 85.8075 232.777 85.2993 232.299 84.8974C231.36 84.1442 229.967 83.7676 228.121 83.7676H220.328V92.8885H228.136ZM228.561 106.446C230.352 106.446 231.755 105.961 232.78 105.001C233.762 104.013 234.312 102.678 234.312 101.287C234.312 99.8963 233.762 98.5616 232.78 97.5727C231.745 96.6235 230.352 96.1489 228.561 96.1489H220.328V106.467L228.561 106.446Z" fill="black"/>
<path d="M244.643 109.479C244.471 109.291 244.38 109.042 244.389 108.788V81.4458C244.375 81.1781 244.466 80.9153 244.643 80.7132C244.728 80.6217 244.833 80.5499 244.949 80.5026C245.065 80.4554 245.19 80.434 245.316 80.4398H262.573C262.71 80.4302 262.848 80.4505 262.976 80.4993C263.105 80.5482 263.221 80.6243 263.317 80.7225C263.413 80.8207 263.487 80.9386 263.533 81.068C263.578 81.1973 263.595 81.3351 263.582 81.4716V82.978C263.587 83.1021 263.565 83.2258 263.518 83.3407C263.471 83.4555 263.399 83.5588 263.308 83.6435C263.105 83.8197 262.841 83.9104 262.573 83.8963H248.251V93.2235H261.651C261.785 93.2135 261.92 93.2325 262.047 93.2793C262.173 93.326 262.288 93.3994 262.383 93.4944C262.479 93.5894 262.552 93.7038 262.599 93.8298C262.646 93.9558 262.665 94.0903 262.655 94.2243V95.6482C262.66 95.7761 262.638 95.9036 262.591 96.0226C262.544 96.1416 262.472 96.2495 262.381 96.3395C262.284 96.432 262.17 96.5039 262.044 96.5509C261.919 96.5979 261.785 96.619 261.651 96.6129H248.251V106.275H262.909C263.044 106.269 263.178 106.29 263.305 106.337C263.431 106.384 263.547 106.456 263.644 106.549C263.737 106.646 263.808 106.762 263.855 106.887C263.901 107.013 263.921 107.148 263.913 107.281V108.788C263.916 108.917 263.892 109.045 263.842 109.164C263.792 109.283 263.718 109.39 263.624 109.479C263.428 109.656 263.173 109.752 262.909 109.747H245.305C245.182 109.752 245.059 109.731 244.945 109.685C244.831 109.638 244.727 109.568 244.643 109.479V109.479Z" fill="black"/>
<path d="M270.051 109.479C269.879 109.29 269.788 109.042 269.797 108.788V81.4455C269.783 81.1777 269.874 80.915 270.051 80.7129C270.136 80.6221 270.24 80.5506 270.355 80.5034C270.47 80.4562 270.594 80.4344 270.719 80.4395H272.697C272.831 80.4334 272.964 80.4545 273.09 80.5015C273.215 80.5485 273.33 80.6204 273.427 80.7129C273.521 80.8094 273.594 80.9243 273.641 81.0504C273.689 81.1766 273.709 81.3111 273.701 81.4455V91.8819L285.092 81.1308C285.304 80.9133 285.559 80.7415 285.84 80.6262C286.121 80.5108 286.424 80.4543 286.728 80.4601H288.83C289.05 80.4678 289.259 80.5584 289.415 80.7135C289.57 80.8686 289.661 81.0767 289.669 81.2959C289.674 81.3963 289.658 81.4967 289.622 81.5908C289.587 81.6849 289.532 81.7706 289.462 81.8427L276.357 94.4768L290.337 108.328C290.476 108.491 290.551 108.698 290.549 108.911C290.544 109.132 290.453 109.342 290.296 109.498C290.138 109.654 289.927 109.743 289.705 109.747H287.52C287.201 109.763 286.882 109.699 286.593 109.561C286.346 109.416 286.107 109.255 285.879 109.082L273.701 97.2162V108.767C273.704 108.896 273.68 109.025 273.629 109.144C273.578 109.264 273.502 109.371 273.406 109.458C273.214 109.637 272.959 109.733 272.697 109.726H270.719C270.596 109.735 270.473 109.718 270.358 109.675C270.243 109.632 270.138 109.565 270.051 109.479V109.479Z" fill="black"/>
<path d="M295.16 109.479C294.988 109.291 294.897 109.043 294.907 108.788V81.4459C294.897 81.1929 294.989 80.9465 295.16 80.7598C295.245 80.669 295.349 80.5975 295.464 80.5503C295.579 80.5031 295.704 80.4813 295.828 80.4864H297.93C298.06 80.4726 298.191 80.4879 298.315 80.5312C298.438 80.5745 298.55 80.6448 298.642 80.7368C298.734 80.8288 298.805 80.9403 298.848 81.063C298.892 81.1857 298.907 81.3165 298.893 81.4459V108.788C298.899 108.916 298.878 109.043 298.832 109.162C298.786 109.281 298.715 109.389 298.624 109.48C298.534 109.57 298.425 109.64 298.306 109.686C298.186 109.733 298.058 109.753 297.93 109.747H295.828C295.704 109.754 295.58 109.733 295.465 109.686C295.349 109.64 295.245 109.569 295.16 109.479V109.479Z" fill="black"/>
<path d="M309.669 109.082C308.147 108.486 306.812 107.495 305.801 106.214C304.952 105.11 304.463 103.774 304.398 102.386C304.398 102.276 304.42 102.168 304.463 102.067C304.505 101.965 304.568 101.874 304.647 101.798C304.73 101.716 304.829 101.652 304.937 101.609C305.046 101.567 305.162 101.547 305.279 101.55H307.35C307.591 101.552 307.825 101.636 308.013 101.788C308.201 101.94 308.332 102.15 308.385 102.386C308.692 103.635 309.466 104.72 310.549 105.419C311.74 106.269 313.44 106.693 315.649 106.693C318.031 106.693 319.808 106.275 320.982 105.44C321.547 105.057 322.005 104.538 322.314 103.931C322.623 103.323 322.772 102.648 322.748 101.968C322.781 101.105 322.472 100.264 321.888 99.6256C321.152 98.9076 320.269 98.3568 319.299 98.0109C318.167 97.55 316.467 96.986 314.199 96.3188C312.418 95.8511 310.692 95.1921 309.053 94.3533C307.889 93.7534 306.899 92.8651 306.179 91.7738C305.494 90.6022 305.158 89.2599 305.211 87.9047C305.19 86.4656 305.615 85.055 306.428 83.8653C307.316 82.6177 308.54 81.6464 309.959 81.064C311.685 80.3401 313.544 79.9884 315.416 80.0323C317.349 79.9781 319.269 80.3719 321.023 81.1827C322.431 81.8309 323.651 82.8229 324.57 84.0665C325.329 85.085 325.78 86.2986 325.87 87.5642C325.872 87.6801 325.852 87.7955 325.808 87.9031C325.765 88.0108 325.7 88.1086 325.618 88.1906C325.536 88.2726 325.438 88.3371 325.33 88.3802C325.222 88.4233 325.106 88.444 324.989 88.4412H322.887C322.662 88.4423 322.442 88.3699 322.261 88.2349C322.054 88.0778 321.907 87.8562 321.842 87.6055C321.746 86.9924 321.515 86.408 321.166 85.8943C320.817 85.3805 320.358 84.9501 319.822 84.634C318.505 83.8202 316.975 83.416 315.427 83.4732C313.521 83.4732 312.009 83.8429 310.891 84.5824C310.348 84.9341 309.907 85.4219 309.613 85.9968C309.318 86.5717 309.18 87.2136 309.213 87.8583C309.173 88.7203 309.449 89.5675 309.99 90.2417C310.654 90.9571 311.472 91.5143 312.382 91.8719C313.921 92.5102 315.498 93.0546 317.104 93.5021C319.029 94.0062 320.906 94.6795 322.711 95.514C323.927 96.0636 324.976 96.9209 325.756 98.0006C326.471 99.1463 326.823 100.48 326.765 101.828C326.815 103.019 326.566 104.203 326.042 105.274C325.518 106.344 324.734 107.268 323.762 107.962C321.76 109.421 319.051 110.151 315.634 110.155C313.593 110.202 311.564 109.837 309.669 109.082Z" fill="black"/>
<path d="M338.682 109.479C338.592 109.388 338.522 109.28 338.474 109.161C338.427 109.042 338.405 108.915 338.408 108.788V84.0561H330.305C330.177 84.0611 330.049 84.0398 329.93 83.9934C329.81 83.947 329.702 83.8766 329.611 83.7866C329.52 83.6965 329.449 83.5888 329.402 83.47C329.355 83.3513 329.332 83.2242 329.337 83.0965V81.4663C329.33 81.3321 329.351 81.1979 329.398 81.0719C329.446 80.946 329.518 80.8309 329.611 80.7338C329.702 80.6435 329.811 80.5727 329.93 80.5257C330.049 80.4787 330.177 80.4565 330.305 80.4603H350.461C350.593 80.4533 350.725 80.4739 350.848 80.5211C350.971 80.5682 351.083 80.6407 351.176 80.7338C351.353 80.9358 351.444 81.1986 351.429 81.4663V83.0965C351.434 83.2242 351.412 83.3513 351.365 83.47C351.317 83.5888 351.246 83.6965 351.155 83.7866C351.064 83.8766 350.956 83.947 350.836 83.9934C350.717 84.0398 350.589 84.0611 350.461 84.0561H342.4V108.788C342.403 108.917 342.378 109.046 342.327 109.165C342.276 109.284 342.201 109.391 342.105 109.479C341.91 109.656 341.654 109.752 341.39 109.747H339.376C339.248 109.752 339.121 109.73 339.002 109.684C338.882 109.638 338.774 109.568 338.682 109.479V109.479Z" fill="black"/>
<path d="M350.504 109.525C350.425 109.449 350.363 109.357 350.32 109.256C350.277 109.155 350.255 109.047 350.255 108.937L350.338 108.478L360.75 81.4044C360.837 81.1217 361.017 80.8766 361.262 80.7097C361.506 80.5428 361.801 80.4639 362.096 80.4861H364.784C365.078 80.4651 365.372 80.5446 365.615 80.7114C365.859 80.8783 366.039 81.1226 366.125 81.4044L376.521 108.452L376.604 108.911C376.603 109.023 376.577 109.134 376.53 109.235C376.483 109.336 376.414 109.426 376.33 109.5C376.167 109.657 375.95 109.746 375.724 109.747H373.746C373.521 109.749 373.3 109.682 373.115 109.555C372.93 109.427 372.788 109.246 372.71 109.035L370.355 103.015H356.468L354.159 109.035C354.079 109.245 353.938 109.425 353.753 109.552C353.568 109.679 353.348 109.747 353.124 109.747H351.11C350.999 109.753 350.888 109.737 350.784 109.699C350.68 109.661 350.584 109.602 350.504 109.525ZM357.685 99.5636H369.19L363.437 84.5461L357.685 99.5636Z" fill="black"/>
<path d="M381.408 109.479C381.24 109.288 381.151 109.041 381.159 108.788V81.4456C381.144 81.1786 381.233 80.9159 381.408 80.7131C381.494 80.6223 381.599 80.551 381.715 80.5039C381.831 80.4567 381.956 80.4348 382.081 80.4396H383.929C384.152 80.4253 384.374 80.4832 384.561 80.6047C384.714 80.7308 384.854 80.8707 384.98 81.0226L399.048 102.618V81.4662C399.04 81.3319 399.06 81.1973 399.108 81.0712C399.155 80.9451 399.228 80.8301 399.322 80.7337C399.412 80.6436 399.52 80.5729 399.638 80.5258C399.757 80.4788 399.883 80.4565 400.011 80.4603H401.89C402.03 80.4466 402.17 80.464 402.302 80.511C402.434 80.558 402.554 80.6336 402.653 80.7323C402.752 80.8309 402.828 80.9502 402.875 81.0816C402.922 81.213 402.94 81.3532 402.926 81.492V108.772C402.931 109.035 402.833 109.289 402.651 109.479C402.564 109.575 402.456 109.651 402.337 109.701C402.217 109.752 402.088 109.776 401.958 109.773H400.068C399.861 109.787 399.655 109.739 399.476 109.635C399.297 109.531 399.153 109.376 399.063 109.19L384.996 87.8065V108.813C384.999 108.941 384.977 109.068 384.93 109.187C384.882 109.306 384.812 109.414 384.722 109.505C384.63 109.594 384.522 109.664 384.402 109.71C384.283 109.756 384.156 109.778 384.028 109.773H382.097C381.967 109.777 381.838 109.753 381.719 109.703C381.6 109.652 381.494 109.575 381.408 109.479V109.479Z" fill="black"/>
<path d="M162.746 134.804C162.7 134.76 162.665 134.707 162.641 134.648C162.616 134.59 162.605 134.527 162.606 134.464V121.308C162.603 121.244 162.614 121.18 162.638 121.121C162.662 121.061 162.699 121.007 162.746 120.963C162.836 120.877 162.957 120.831 163.082 120.834H164.76C164.823 120.83 164.887 120.839 164.947 120.862C165.007 120.884 165.061 120.918 165.107 120.963C165.151 121.009 165.185 121.063 165.207 121.122C165.23 121.182 165.239 121.245 165.236 121.308V134.464C165.238 134.526 165.228 134.588 165.205 134.647C165.183 134.705 165.15 134.759 165.107 134.804C165.062 134.851 165.009 134.888 164.949 134.912C164.889 134.936 164.824 134.947 164.76 134.943H163.082C163.02 134.944 162.957 134.932 162.9 134.908C162.842 134.884 162.789 134.849 162.746 134.804V134.804Z" fill="black"/>
<path d="M168.839 133.86C167.916 132.887 167.417 131.588 167.452 130.249V129.733C167.37 128.311 167.837 126.913 168.757 125.823C169.743 124.901 171.044 124.389 172.396 124.389C173.748 124.389 175.05 124.901 176.036 125.823C176.935 126.885 177.396 128.247 177.325 129.635V130.053C177.327 130.115 177.315 130.177 177.291 130.235C177.267 130.293 177.231 130.345 177.186 130.388C177.138 130.435 177.081 130.471 177.019 130.495C176.957 130.519 176.89 130.53 176.823 130.527H170.186V130.677C170.186 131.338 170.398 131.982 170.791 132.514C170.973 132.749 171.209 132.938 171.48 133.065C171.75 133.191 172.046 133.252 172.345 133.241C172.705 133.248 173.062 133.168 173.385 133.01C173.709 132.851 173.989 132.617 174.203 132.328C174.279 132.224 174.372 132.133 174.478 132.06C174.587 132.02 174.703 132.002 174.82 132.008H176.575C176.687 132.008 176.796 132.044 176.885 132.111C176.928 132.143 176.961 132.184 176.984 132.232C177.007 132.28 177.017 132.332 177.015 132.385C176.963 132.814 176.761 133.212 176.445 133.509C175.99 133.995 175.436 134.378 174.82 134.634C174.044 134.964 173.208 135.125 172.365 135.109C171.724 135.144 171.082 135.051 170.477 134.837C169.871 134.623 169.315 134.291 168.839 133.86ZM174.535 128.851V128.81C174.568 128.134 174.359 127.468 173.945 126.932C173.75 126.699 173.503 126.515 173.225 126.393C172.946 126.271 172.643 126.216 172.34 126.23C172.037 126.216 171.736 126.271 171.459 126.393C171.182 126.515 170.938 126.699 170.745 126.932C170.34 127.472 170.137 128.136 170.17 128.81V128.851H174.535Z" fill="black"/>
<path d="M180.561 134.721C180.027 134.476 179.566 134.095 179.226 133.617C178.901 133.167 178.73 132.624 178.739 132.07C178.729 131.644 178.824 131.222 179.015 130.84C179.207 130.459 179.488 130.13 179.836 129.882C180.729 129.262 181.763 128.874 182.845 128.753L185.578 128.35V127.937C185.596 127.703 185.566 127.468 185.491 127.245C185.415 127.023 185.295 126.818 185.138 126.643C184.75 126.32 184.249 126.164 183.746 126.209C183.377 126.193 183.01 126.275 182.684 126.447C182.45 126.582 182.233 126.745 182.037 126.931L181.711 127.262C181.695 127.329 181.657 127.39 181.603 127.433C181.548 127.476 181.48 127.499 181.41 127.499H179.857C179.742 127.501 179.631 127.458 179.547 127.38C179.503 127.339 179.469 127.29 179.447 127.235C179.424 127.179 179.414 127.12 179.417 127.06C179.462 126.647 179.632 126.257 179.904 125.941C180.29 125.466 180.785 125.091 181.348 124.847C182.109 124.512 182.935 124.351 183.766 124.378C185.33 124.378 186.472 124.722 187.194 125.41C187.555 125.772 187.837 126.204 188.022 126.68C188.207 127.156 188.292 127.665 188.271 128.175V134.412C188.273 134.474 188.262 134.537 188.24 134.595C188.218 134.653 188.184 134.707 188.141 134.752C188.097 134.799 188.043 134.836 187.983 134.86C187.923 134.884 187.859 134.895 187.794 134.892H186.138C186.074 134.892 186.011 134.88 185.952 134.857C185.894 134.833 185.84 134.797 185.796 134.753C185.751 134.708 185.715 134.655 185.691 134.596C185.667 134.538 185.655 134.475 185.656 134.412V133.638C185.339 134.08 184.915 134.435 184.424 134.67C183.799 134.962 183.114 135.101 182.425 135.077C181.785 135.102 181.147 134.98 180.561 134.721V134.721ZM184.9 132.508C185.398 131.94 185.649 131.198 185.599 130.445V130.047L183.606 130.367C182.052 130.605 181.312 131.115 181.312 131.915C181.304 132.11 181.348 132.304 181.439 132.477C181.53 132.65 181.664 132.796 181.83 132.9C182.207 133.139 182.647 133.259 183.093 133.246C183.429 133.256 183.764 133.196 184.075 133.069C184.387 132.942 184.668 132.751 184.9 132.508V132.508Z" fill="black"/>
<path d="M190.962 134.804C190.917 134.76 190.881 134.707 190.857 134.649C190.833 134.59 190.821 134.527 190.822 134.464V125.095C190.82 125.03 190.831 124.964 190.855 124.903C190.879 124.842 190.916 124.786 190.962 124.74C191.006 124.695 191.058 124.659 191.116 124.635C191.174 124.611 191.236 124.599 191.299 124.6H192.935C193.069 124.598 193.199 124.648 193.297 124.74C193.388 124.836 193.438 124.963 193.437 125.095V125.911C193.772 125.476 194.208 125.129 194.708 124.9C195.208 124.672 195.756 124.569 196.305 124.6H197.144C197.208 124.596 197.272 124.605 197.332 124.627C197.392 124.649 197.446 124.684 197.491 124.729C197.536 124.774 197.571 124.828 197.594 124.888C197.616 124.948 197.625 125.011 197.62 125.075V126.55C197.622 126.613 197.612 126.675 197.59 126.733C197.568 126.792 197.534 126.845 197.491 126.891C197.447 126.938 197.393 126.974 197.333 126.998C197.273 127.023 197.209 127.033 197.144 127.03H195.591C195.321 127.007 195.049 127.044 194.794 127.136C194.539 127.229 194.308 127.376 194.116 127.567C193.924 127.759 193.777 127.989 193.684 128.243C193.59 128.497 193.554 128.768 193.577 129.037V134.479C193.577 134.543 193.566 134.605 193.542 134.664C193.518 134.722 193.482 134.776 193.437 134.82C193.392 134.865 193.339 134.9 193.28 134.924C193.222 134.948 193.159 134.96 193.095 134.959H191.319C191.252 134.961 191.185 134.948 191.124 134.921C191.062 134.895 191.007 134.855 190.962 134.804V134.804Z" fill="black"/>
<path d="M199.318 134.804C199.272 134.76 199.237 134.707 199.213 134.648C199.188 134.59 199.177 134.527 199.178 134.464V125.074C199.175 125.01 199.185 124.946 199.21 124.886C199.234 124.827 199.271 124.773 199.318 124.729C199.362 124.686 199.415 124.653 199.473 124.631C199.531 124.608 199.592 124.598 199.654 124.6H201.311C201.375 124.595 201.439 124.604 201.499 124.627C201.559 124.649 201.613 124.684 201.658 124.729C201.703 124.774 201.738 124.828 201.761 124.888C201.783 124.947 201.792 125.011 201.787 125.074V125.89C202.188 125.399 202.698 125.008 203.277 124.749C203.856 124.49 204.488 124.37 205.122 124.399C205.665 124.374 206.207 124.467 206.709 124.673C207.212 124.879 207.663 125.192 208.032 125.59C208.794 126.509 209.179 127.681 209.108 128.871V134.453C209.11 134.516 209.1 134.578 209.078 134.636C209.056 134.695 209.022 134.748 208.979 134.794C208.934 134.841 208.879 134.878 208.818 134.902C208.757 134.926 208.692 134.936 208.627 134.933H206.836C206.772 134.934 206.709 134.922 206.65 134.898C206.592 134.874 206.538 134.839 206.494 134.794C206.449 134.749 206.413 134.696 206.389 134.638C206.365 134.579 206.353 134.516 206.354 134.453V128.99C206.394 128.341 206.193 127.701 205.79 127.19C205.582 126.97 205.329 126.799 205.049 126.688C204.768 126.576 204.466 126.527 204.164 126.545C203.86 126.532 203.557 126.584 203.275 126.697C202.993 126.81 202.739 126.982 202.528 127.2C202.094 127.693 201.871 128.335 201.906 128.99V134.453C201.908 134.516 201.898 134.578 201.876 134.636C201.854 134.695 201.82 134.748 201.777 134.794C201.733 134.841 201.679 134.877 201.619 134.901C201.559 134.925 201.495 134.936 201.43 134.933H199.654C199.592 134.935 199.531 134.925 199.473 134.903C199.415 134.881 199.362 134.847 199.318 134.804Z" fill="black"/>
<path d="M211.244 136.3C211.21 136.26 211.186 136.212 211.172 136.162C211.159 136.111 211.157 136.058 211.167 136.006L211.684 132.606C211.762 132.183 211.985 131.972 212.342 131.972H214.196C214.289 131.975 214.378 132.014 214.444 132.08C214.51 132.146 214.549 132.234 214.553 132.328C214.549 132.423 214.53 132.517 214.496 132.606L213.201 135.903C213.163 136.049 213.077 136.179 212.957 136.272C212.838 136.365 212.691 136.417 212.539 136.419H211.503C211.454 136.42 211.405 136.411 211.36 136.39C211.315 136.369 211.275 136.339 211.244 136.3V136.3Z" fill="black"/>
<path d="M222.889 134.67C222.31 134.441 221.795 134.076 221.387 133.607C221.115 133.326 220.942 132.964 220.895 132.575C220.893 132.517 220.903 132.458 220.925 132.404C220.948 132.349 220.982 132.301 221.025 132.261C221.109 132.182 221.22 132.139 221.336 132.142H222.972C223.027 132.144 223.081 132.16 223.13 132.187C223.178 132.213 223.22 132.251 223.251 132.297L223.697 132.679C224.196 133.098 224.83 133.323 225.483 133.313C225.935 133.333 226.383 133.226 226.777 133.004C226.937 132.919 227.07 132.791 227.161 132.636C227.253 132.48 227.299 132.302 227.295 132.121C227.306 131.884 227.222 131.652 227.062 131.477C226.831 131.262 226.553 131.104 226.249 131.017C225.67 130.829 225.08 130.672 224.484 130.548C223.567 130.409 222.703 130.034 221.978 129.459C221.709 129.212 221.498 128.91 221.358 128.573C221.219 128.236 221.155 127.873 221.17 127.509C221.172 126.972 221.34 126.448 221.651 126.008C222.012 125.503 222.505 125.105 223.075 124.858C223.787 124.542 224.559 124.389 225.338 124.409C226.137 124.39 226.932 124.536 227.673 124.837C228.24 125.065 228.748 125.418 229.159 125.869C229.449 126.151 229.632 126.525 229.677 126.926C229.678 126.983 229.667 127.04 229.645 127.093C229.622 127.145 229.589 127.192 229.547 127.231C229.507 127.272 229.459 127.305 229.405 127.327C229.352 127.349 229.294 127.361 229.237 127.36H227.74C227.675 127.363 227.61 127.351 227.551 127.323C227.493 127.295 227.442 127.253 227.404 127.2C227.247 127.086 227.097 126.964 226.953 126.834C226.749 126.657 226.518 126.512 226.27 126.405C225.975 126.295 225.663 126.242 225.348 126.251C224.945 126.224 224.545 126.335 224.214 126.565C224.087 126.664 223.985 126.791 223.916 126.936C223.846 127.081 223.812 127.24 223.816 127.401C223.808 127.616 223.874 127.827 224.002 128C224.218 128.209 224.483 128.361 224.773 128.443C225.34 128.63 225.92 128.773 226.508 128.871C228.9 129.336 230.096 130.376 230.096 131.992C230.101 132.446 229.991 132.892 229.777 133.292C229.562 133.691 229.25 134.031 228.869 134.278C227.847 134.916 226.651 135.221 225.447 135.15C224.569 135.176 223.697 135.012 222.889 134.67V134.67Z" fill="black"/>
<path d="M232.265 134.804C232.219 134.76 232.183 134.707 232.159 134.648C232.135 134.59 232.124 134.527 232.125 134.464V121.309C232.123 121.246 232.133 121.183 232.157 121.125C232.18 121.066 232.215 121.013 232.259 120.968C232.304 120.924 232.358 120.889 232.416 120.866C232.475 120.843 232.538 120.832 232.601 120.834H234.418C234.482 120.83 234.546 120.839 234.606 120.861C234.666 120.883 234.72 120.918 234.766 120.963C234.811 121.008 234.846 121.062 234.868 121.122C234.89 121.182 234.899 121.245 234.895 121.309V125.843C235.283 125.374 235.775 125.001 236.331 124.752C236.888 124.504 237.495 124.386 238.105 124.409C238.652 124.386 239.197 124.481 239.703 124.689C240.209 124.897 240.664 125.211 241.035 125.611C241.804 126.523 242.197 127.692 242.133 128.882V134.464C242.135 134.526 242.125 134.589 242.102 134.647C242.08 134.705 242.047 134.759 242.004 134.804C241.959 134.851 241.905 134.888 241.845 134.912C241.785 134.936 241.721 134.947 241.657 134.944H239.834C239.768 134.946 239.702 134.935 239.641 134.911C239.58 134.887 239.524 134.851 239.477 134.804C239.432 134.76 239.396 134.707 239.372 134.648C239.348 134.59 239.336 134.527 239.337 134.464V128.99C239.375 128.341 239.173 127.7 238.768 127.19C238.56 126.971 238.307 126.799 238.026 126.688C237.746 126.577 237.444 126.528 237.142 126.545C236.838 126.533 236.535 126.585 236.253 126.698C235.971 126.811 235.717 126.982 235.506 127.2C235.075 127.695 234.855 128.337 234.89 128.99V134.454C234.892 134.516 234.881 134.578 234.859 134.637C234.837 134.695 234.803 134.749 234.76 134.794C234.716 134.841 234.662 134.877 234.602 134.901C234.542 134.925 234.478 134.936 234.413 134.933H232.586C232.526 134.934 232.467 134.923 232.412 134.901C232.357 134.879 232.307 134.846 232.265 134.804V134.804Z" fill="black"/>
<path d="M245.815 134.721C245.286 134.474 244.831 134.093 244.494 133.617C244.158 133.171 243.977 132.628 243.977 132.07C243.968 131.644 244.063 131.222 244.254 130.841C244.445 130.46 244.727 130.131 245.074 129.882C245.968 129.261 247.004 128.873 248.087 128.753L250.816 128.35V127.937C250.833 127.704 250.804 127.469 250.729 127.247C250.654 127.024 250.536 126.819 250.381 126.643C249.99 126.321 249.488 126.165 248.983 126.209C248.623 126.195 248.265 126.277 247.948 126.447C247.714 126.582 247.496 126.745 247.301 126.931L246.969 127.262C246.956 127.33 246.918 127.392 246.863 127.435C246.808 127.479 246.739 127.501 246.669 127.499H245.116C245.001 127.5 244.89 127.457 244.805 127.38C244.763 127.339 244.729 127.289 244.707 127.234C244.685 127.179 244.674 127.12 244.675 127.06C244.722 126.646 244.894 126.256 245.167 125.941C245.552 125.465 246.048 125.089 246.612 124.847C247.37 124.512 248.195 124.351 249.025 124.378C250.592 124.378 251.734 124.722 252.452 125.41C252.813 125.772 253.095 126.204 253.281 126.68C253.466 127.156 253.55 127.665 253.529 128.175V134.412C253.531 134.474 253.521 134.537 253.498 134.595C253.476 134.653 253.443 134.707 253.4 134.752C253.355 134.799 253.301 134.836 253.242 134.86C253.182 134.884 253.117 134.895 253.053 134.892H251.396C251.333 134.892 251.271 134.879 251.212 134.855C251.154 134.831 251.102 134.795 251.057 134.751C251.013 134.706 250.978 134.653 250.954 134.595C250.931 134.537 250.919 134.475 250.92 134.412V133.638C250.601 134.08 250.175 134.435 249.682 134.67C249.06 134.962 248.376 135.101 247.689 135.077C247.045 135.103 246.404 134.982 245.815 134.721V134.721ZM250.148 132.508C250.646 131.94 250.897 131.198 250.847 130.445V130.047L248.854 130.367C247.325 130.605 246.56 131.12 246.56 131.915C246.552 132.11 246.596 132.304 246.687 132.477C246.778 132.65 246.913 132.796 247.078 132.9C247.457 133.139 247.898 133.259 248.346 133.246C248.682 133.256 249.016 133.196 249.326 133.069C249.637 132.941 249.917 132.75 250.148 132.508V132.508Z" fill="black"/>
<path d="M256.209 134.804C256.164 134.76 256.128 134.707 256.104 134.648C256.08 134.589 256.068 134.527 256.07 134.463V125.095C256.067 125.029 256.078 124.964 256.102 124.902C256.126 124.841 256.163 124.786 256.209 124.739C256.254 124.694 256.307 124.658 256.366 124.634C256.425 124.61 256.488 124.598 256.551 124.6H258.187C258.257 124.593 258.327 124.602 258.393 124.626C258.458 124.65 258.518 124.687 258.567 124.737C258.617 124.786 258.655 124.845 258.678 124.911C258.702 124.976 258.711 125.046 258.705 125.116V125.931C259.04 125.495 259.477 125.148 259.978 124.92C260.479 124.691 261.029 124.589 261.578 124.62H262.412C262.476 124.617 262.541 124.626 262.601 124.648C262.662 124.671 262.717 124.705 262.764 124.749C262.808 124.795 262.842 124.85 262.864 124.909C262.886 124.968 262.896 125.032 262.894 125.095V126.55C262.893 126.675 262.847 126.796 262.764 126.89C262.719 126.937 262.664 126.974 262.603 126.998C262.543 127.022 262.477 127.033 262.412 127.029H260.859C260.59 127.011 260.321 127.047 260.067 127.135C259.814 127.224 259.581 127.364 259.383 127.545C259.202 127.743 259.063 127.975 258.974 128.228C258.885 128.48 258.848 128.748 258.865 129.016V134.458C258.866 134.521 258.854 134.583 258.831 134.641C258.807 134.7 258.772 134.753 258.728 134.797C258.683 134.842 258.631 134.877 258.573 134.901C258.514 134.926 258.452 134.938 258.389 134.938H256.613C256.54 134.949 256.465 134.943 256.395 134.92C256.325 134.896 256.261 134.857 256.209 134.804V134.804Z" fill="black"/>
<path d="M265.234 133.86C264.314 132.884 263.816 131.587 263.846 130.249V129.733C263.765 128.311 264.231 126.913 265.151 125.823C266.138 124.901 267.439 124.389 268.791 124.389C270.143 124.389 271.444 124.901 272.431 125.823C273.326 126.887 273.785 128.248 273.715 129.635V130.053C273.716 130.115 273.704 130.177 273.68 130.235C273.656 130.293 273.62 130.345 273.575 130.388C273.528 130.435 273.472 130.471 273.411 130.495C273.349 130.519 273.284 130.53 273.218 130.527H266.58V130.677C266.577 131.339 266.792 131.984 267.191 132.514C267.373 132.749 267.609 132.938 267.879 133.065C268.149 133.191 268.446 133.252 268.744 133.241C269.104 133.248 269.46 133.168 269.783 133.01C270.105 132.851 270.385 132.617 270.598 132.328C270.673 132.222 270.768 132.131 270.877 132.06C270.987 132.02 271.103 132.002 271.219 132.008H272.969C273.08 132.006 273.188 132.043 273.275 132.111C273.318 132.142 273.352 132.184 273.374 132.231C273.397 132.279 273.407 132.332 273.404 132.385C273.355 132.814 273.155 133.212 272.84 133.509C272.383 133.994 271.829 134.377 271.214 134.634C270.439 134.964 269.602 135.125 268.76 135.109C268.118 135.143 267.476 135.051 266.871 134.837C266.266 134.622 265.709 134.29 265.234 133.86V133.86ZM270.929 128.851V128.81C270.962 128.134 270.753 127.468 270.339 126.932C270.144 126.7 269.897 126.516 269.619 126.394C269.34 126.272 269.038 126.216 268.734 126.23C268.432 126.215 268.13 126.271 267.853 126.393C267.576 126.514 267.332 126.699 267.139 126.932C266.73 127.47 266.525 128.135 266.559 128.81V128.851H270.929Z" fill="black"/>
<path d="M275.413 136.3C275.38 136.259 275.356 136.212 275.343 136.161C275.33 136.11 275.327 136.058 275.335 136.006L275.853 132.606C275.936 132.183 276.153 131.972 276.51 131.972H278.369C278.416 131.972 278.462 131.982 278.504 132.001C278.547 132.02 278.585 132.046 278.618 132.08C278.652 132.112 278.679 132.15 278.698 132.193C278.716 132.235 278.726 132.281 278.726 132.328C278.72 132.423 278.699 132.517 278.664 132.606L277.37 135.903C277.333 136.049 277.249 136.179 277.13 136.273C277.011 136.366 276.864 136.417 276.712 136.419H275.677C275.627 136.421 275.577 136.411 275.531 136.391C275.485 136.37 275.444 136.339 275.413 136.3V136.3Z" fill="black"/>
<path d="M285.708 122.769C285.662 122.725 285.627 122.673 285.603 122.616C285.579 122.558 285.567 122.496 285.568 122.433V120.984C285.565 120.917 285.576 120.851 285.6 120.789C285.624 120.727 285.661 120.67 285.708 120.623C285.751 120.578 285.804 120.542 285.861 120.519C285.919 120.495 285.982 120.483 286.044 120.483H287.882C287.952 120.477 288.022 120.486 288.088 120.51C288.153 120.533 288.213 120.571 288.262 120.62C288.312 120.67 288.35 120.729 288.374 120.795C288.397 120.86 288.406 120.93 288.4 120.999V122.423C288.4 122.486 288.387 122.549 288.361 122.607C288.335 122.665 288.297 122.716 288.25 122.758C288.156 122.846 288.032 122.896 287.903 122.898H286.065C286 122.903 285.934 122.894 285.872 122.872C285.811 122.849 285.755 122.814 285.708 122.769ZM285.785 134.794C285.74 134.75 285.704 134.697 285.68 134.638C285.656 134.58 285.644 134.517 285.645 134.454V125.075C285.642 125.011 285.653 124.946 285.677 124.887C285.701 124.827 285.738 124.773 285.785 124.729C285.831 124.686 285.885 124.653 285.943 124.631C286.002 124.609 286.064 124.598 286.127 124.6H287.82C287.883 124.6 287.946 124.611 288.004 124.635C288.062 124.658 288.116 124.693 288.16 124.737C288.205 124.782 288.241 124.834 288.265 124.892C288.289 124.95 288.302 125.012 288.302 125.075V134.454C288.302 134.517 288.29 134.579 288.266 134.638C288.242 134.697 288.207 134.75 288.162 134.794C288.117 134.839 288.064 134.874 288.005 134.898C287.946 134.922 287.884 134.934 287.82 134.933H286.127C286.064 134.936 286.002 134.926 285.943 134.904C285.884 134.881 285.831 134.848 285.785 134.804V134.794Z" fill="black"/>
<path d="M291.092 134.804C291.046 134.76 291.01 134.707 290.986 134.648C290.962 134.59 290.951 134.527 290.952 134.464V125.074C290.948 125.01 290.959 124.946 290.983 124.886C291.008 124.827 291.044 124.773 291.092 124.729C291.137 124.686 291.191 124.653 291.249 124.63C291.308 124.608 291.371 124.598 291.433 124.6H293.085C293.149 124.594 293.214 124.603 293.274 124.625C293.335 124.647 293.39 124.681 293.435 124.727C293.481 124.772 293.517 124.826 293.539 124.886C293.562 124.946 293.571 125.01 293.566 125.074V125.89C293.965 125.399 294.475 125.008 295.053 124.749C295.631 124.49 296.262 124.37 296.896 124.399C297.439 124.373 297.98 124.467 298.483 124.673C298.986 124.879 299.437 125.192 299.805 125.59C300.568 126.509 300.952 127.681 300.882 128.871V134.453C300.884 134.516 300.874 134.578 300.852 134.636C300.829 134.695 300.796 134.748 300.753 134.794C300.708 134.84 300.654 134.877 300.595 134.901C300.535 134.925 300.47 134.936 300.406 134.933H298.609C298.547 134.934 298.484 134.922 298.426 134.898C298.369 134.874 298.316 134.839 298.273 134.794C298.227 134.749 298.192 134.696 298.168 134.638C298.144 134.579 298.132 134.517 298.133 134.453V128.99C298.171 128.341 297.969 127.7 297.563 127.19C297.356 126.97 297.103 126.799 296.822 126.688C296.541 126.576 296.24 126.527 295.938 126.545C295.634 126.533 295.331 126.585 295.049 126.698C294.767 126.811 294.513 126.982 294.302 127.2C293.871 127.695 293.65 128.336 293.685 128.99V134.453C293.685 134.579 293.639 134.7 293.556 134.794C293.511 134.841 293.456 134.878 293.395 134.902C293.334 134.926 293.269 134.936 293.204 134.933H291.433C291.371 134.936 291.308 134.925 291.249 134.903C291.19 134.881 291.137 134.847 291.092 134.804V134.804Z" fill="black"/>
<path d="M304.812 134.67C304.232 134.441 303.715 134.077 303.306 133.608C303.034 133.326 302.863 132.964 302.819 132.576C302.816 132.517 302.826 132.459 302.849 132.404C302.871 132.35 302.905 132.301 302.948 132.261C302.988 132.222 303.036 132.191 303.089 132.17C303.141 132.15 303.197 132.14 303.254 132.142H304.89C304.946 132.144 305 132.158 305.049 132.185C305.098 132.212 305.139 132.251 305.169 132.297L305.62 132.679C305.857 132.878 306.127 133.035 306.417 133.143C306.734 133.26 307.069 133.318 307.406 133.313C307.858 133.333 308.307 133.226 308.7 133.004C308.859 132.918 308.992 132.791 309.083 132.635C309.174 132.479 309.221 132.302 309.218 132.122C309.228 131.886 309.147 131.655 308.99 131.477C308.758 131.262 308.477 131.105 308.172 131.018C307.593 130.829 307.004 130.672 306.407 130.548C305.492 130.409 304.63 130.034 303.906 129.46C303.638 129.213 303.426 128.91 303.287 128.573C303.147 128.237 303.083 127.874 303.098 127.51C303.101 126.973 303.267 126.449 303.575 126.009C303.939 125.504 304.433 125.107 305.004 124.858C305.714 124.541 306.488 124.387 307.266 124.409C308.064 124.39 308.858 124.536 309.596 124.837C310.164 125.064 310.672 125.417 311.082 125.869C311.374 126.151 311.557 126.525 311.6 126.927C311.599 127.042 311.552 127.152 311.469 127.234C311.387 127.315 311.276 127.36 311.16 127.36H309.663C309.598 127.363 309.532 127.35 309.473 127.322C309.413 127.295 309.361 127.253 309.322 127.2C309.167 127.086 309.018 126.964 308.876 126.834C308.671 126.656 308.439 126.512 308.188 126.406C307.895 126.296 307.584 126.243 307.271 126.251C306.867 126.225 306.466 126.336 306.132 126.566C306.005 126.664 305.903 126.791 305.834 126.937C305.765 127.082 305.73 127.241 305.734 127.401C305.725 127.617 305.793 127.829 305.925 128C306.139 128.209 306.403 128.362 306.692 128.444C307.258 128.629 307.838 128.772 308.426 128.872C310.818 129.336 312.014 130.376 312.014 131.993C312.02 132.445 311.911 132.892 311.698 133.292C311.484 133.691 311.173 134.031 310.792 134.278C309.77 134.916 308.574 135.22 307.37 135.15C306.493 135.176 305.62 135.012 304.812 134.67V134.67Z" fill="black"/>
<path d="M314.182 138.576C314.135 138.531 314.098 138.478 314.074 138.418C314.05 138.358 314.039 138.294 314.042 138.23V125.075C314.039 125.011 314.05 124.946 314.074 124.887C314.098 124.827 314.135 124.773 314.182 124.729C314.272 124.643 314.393 124.597 314.518 124.6H316.118C316.184 124.598 316.25 124.609 316.311 124.633C316.373 124.657 316.429 124.693 316.476 124.739C316.521 124.783 316.556 124.835 316.58 124.893C316.604 124.95 316.616 125.012 316.615 125.075V125.869C316.976 125.378 317.456 124.985 318.01 124.728C318.564 124.471 319.174 124.358 319.784 124.399C320.364 124.361 320.945 124.455 321.484 124.674C322.022 124.893 322.503 125.231 322.891 125.663C323.652 126.627 324.061 127.82 324.05 129.047C324.05 129.207 324.05 129.45 324.05 129.764C324.05 130.079 324.05 130.321 324.05 130.481C324.068 131.703 323.662 132.892 322.901 133.85C322.514 134.284 322.034 134.625 321.496 134.846C320.957 135.068 320.376 135.165 319.794 135.129C319.209 135.162 318.625 135.05 318.093 134.804C317.561 134.559 317.098 134.187 316.745 133.721V138.23C316.749 138.293 316.739 138.357 316.717 138.416C316.695 138.476 316.66 138.53 316.615 138.576C316.569 138.62 316.515 138.654 316.455 138.676C316.396 138.698 316.332 138.708 316.268 138.705H314.529C314.465 138.707 314.402 138.698 314.342 138.675C314.282 138.653 314.228 138.619 314.182 138.576V138.576ZM321.301 130.363C321.311 130.163 321.311 129.964 321.301 129.764C321.311 129.567 321.311 129.369 321.301 129.171C321.208 127.424 320.457 126.55 319.049 126.55C318.728 126.527 318.406 126.582 318.111 126.711C317.816 126.839 317.557 127.037 317.356 127.288C316.972 127.805 316.762 128.43 316.755 129.073C316.755 129.233 316.755 129.486 316.755 129.831C316.755 130.177 316.755 130.435 316.755 130.605C316.765 131.22 316.982 131.814 317.371 132.292C317.579 132.528 317.839 132.713 318.129 132.833C318.42 132.954 318.734 133.007 319.049 132.989C320.461 132.985 321.211 132.11 321.301 130.363Z" fill="black"/>
<path d="M326.328 122.769C326.283 122.725 326.248 122.673 326.223 122.616C326.199 122.558 326.188 122.496 326.189 122.433V120.984C326.186 120.917 326.197 120.851 326.221 120.789C326.245 120.727 326.282 120.67 326.328 120.623C326.372 120.578 326.424 120.542 326.482 120.519C326.54 120.495 326.602 120.483 326.665 120.483H328.503C328.573 120.477 328.643 120.486 328.708 120.51C328.774 120.533 328.834 120.571 328.883 120.62C328.933 120.67 328.971 120.729 328.994 120.795C329.018 120.86 329.027 120.93 329.021 120.999V122.423C329.021 122.486 329.008 122.549 328.982 122.607C328.956 122.665 328.918 122.716 328.871 122.758C328.776 122.846 328.653 122.896 328.524 122.898H326.686C326.62 122.903 326.555 122.894 326.493 122.872C326.432 122.849 326.375 122.814 326.328 122.769V122.769ZM326.406 134.794C326.361 134.75 326.325 134.697 326.301 134.638C326.277 134.58 326.265 134.517 326.266 134.454V125.075C326.263 125.011 326.274 124.946 326.298 124.887C326.322 124.827 326.359 124.773 326.406 124.729C326.452 124.686 326.505 124.653 326.564 124.631C326.623 124.609 326.685 124.598 326.748 124.6H328.441C328.504 124.599 328.566 124.611 328.624 124.635C328.682 124.659 328.734 124.694 328.777 124.739C328.822 124.783 328.858 124.835 328.882 124.893C328.906 124.95 328.918 125.012 328.917 125.075V134.454C328.918 134.517 328.907 134.58 328.883 134.638C328.859 134.697 328.823 134.75 328.777 134.794C328.734 134.839 328.682 134.875 328.624 134.899C328.566 134.923 328.504 134.934 328.441 134.933H326.748C326.685 134.936 326.622 134.926 326.564 134.904C326.505 134.881 326.451 134.848 326.406 134.804V134.794Z" fill="black"/>
<path d="M331.693 134.804C331.648 134.76 331.612 134.707 331.588 134.648C331.564 134.59 331.552 134.527 331.554 134.464V125.095C331.551 125.03 331.562 124.964 331.586 124.903C331.61 124.842 331.647 124.786 331.693 124.739C331.737 124.695 331.789 124.659 331.847 124.635C331.905 124.611 331.967 124.599 332.03 124.6H333.666C333.732 124.597 333.798 124.608 333.859 124.632C333.921 124.656 333.977 124.693 334.023 124.739C334.07 124.786 334.106 124.842 334.13 124.903C334.154 124.964 334.165 125.03 334.163 125.095V125.91C334.499 125.476 334.936 125.129 335.437 124.901C335.938 124.672 336.487 124.569 337.037 124.6H337.875C337.939 124.595 338.003 124.605 338.063 124.627C338.123 124.649 338.177 124.684 338.222 124.729C338.268 124.774 338.303 124.828 338.325 124.888C338.347 124.947 338.356 125.011 338.352 125.075V126.55C338.354 126.613 338.343 126.675 338.321 126.733C338.299 126.792 338.265 126.845 338.222 126.891C338.178 126.938 338.124 126.974 338.064 126.998C338.004 127.022 337.94 127.033 337.875 127.03H336.322C336.051 127.005 335.779 127.04 335.523 127.133C335.268 127.225 335.035 127.372 334.843 127.563C334.651 127.755 334.504 127.986 334.411 128.241C334.319 128.495 334.283 128.767 334.308 129.037V134.479C334.308 134.607 334.258 134.729 334.168 134.82C334.124 134.865 334.071 134.901 334.012 134.925C333.953 134.949 333.89 134.96 333.826 134.959H332.051C331.983 134.961 331.916 134.948 331.855 134.921C331.793 134.894 331.738 134.855 331.693 134.804V134.804Z" fill="black"/>
<path d="M340.718 133.86C339.794 132.887 339.296 131.588 339.33 130.249V129.733C339.249 128.311 339.716 126.913 340.635 125.823C341.622 124.901 342.923 124.389 344.275 124.389C345.627 124.389 346.928 124.901 347.915 125.823C348.809 126.89 349.262 128.257 349.183 129.645V130.063C349.184 130.126 349.173 130.188 349.149 130.245C349.124 130.303 349.089 130.355 349.044 130.399C348.996 130.445 348.939 130.482 348.877 130.506C348.815 130.53 348.748 130.541 348.681 130.538H342.064V130.677C342.064 131.338 342.276 131.982 342.67 132.514C342.852 132.749 343.088 132.938 343.358 133.065C343.628 133.191 343.925 133.252 344.223 133.241C344.583 133.247 344.939 133.168 345.261 133.009C345.584 132.85 345.863 132.617 346.077 132.328C346.152 132.222 346.247 132.131 346.356 132.06C346.464 132.019 346.578 132.002 346.693 132.008H348.448C348.56 132.008 348.669 132.044 348.759 132.111C348.801 132.143 348.835 132.184 348.857 132.232C348.88 132.28 348.89 132.332 348.888 132.385C348.836 132.814 348.635 133.212 348.319 133.509C347.863 133.995 347.309 134.378 346.693 134.634C345.918 134.964 345.081 135.125 344.239 135.109C343.598 135.143 342.957 135.05 342.353 134.836C341.748 134.622 341.193 134.29 340.718 133.86V133.86ZM346.413 128.851V128.81C346.446 128.135 346.238 127.47 345.828 126.932C345.625 126.71 345.377 126.534 345.101 126.413C344.825 126.292 344.527 126.23 344.226 126.23C343.924 126.23 343.626 126.292 343.351 126.413C343.075 126.534 342.827 126.71 342.623 126.932C342.219 127.472 342.016 128.136 342.049 128.81V128.851H346.413Z" fill="black"/>
</svg>
