<svg width="42" height="42" viewBox="0 0 42 42" fill="none" xmlns="http://www.w3.org/2000/svg">
<g id="logos:telegram" clip-path="url(#clip0_282_1790)">
<path id="Vector" d="M21 0C15.4317 0 10.0866 2.21386 6.15234 6.1507C2.21407 10.0891 0.00109092 15.4303 0 21C0 26.5673 2.21484 31.9125 6.15234 35.8493C10.0866 39.7861 15.4317 42 21 42C26.5683 42 31.9134 39.7861 35.8477 35.8493C39.7852 31.9125 42 26.5673 42 21C42 15.4327 39.7852 10.0875 35.8477 6.1507C31.9134 2.21386 26.5683 0 21 0Z" fill="url(#paint0_linear_282_1790)"/>
<path id="Vector_2" d="M9.50579 20.7781C15.6286 18.1111 19.7105 16.3527 21.7514 15.5031C27.5855 13.0773 28.7963 12.656 29.587 12.6417C29.7609 12.6389 30.1481 12.6819 30.4008 12.8862C30.6108 13.0584 30.6698 13.2914 30.6994 13.455C30.7256 13.6184 30.7617 13.9908 30.7322 14.2815C30.4172 17.6022 29.0489 25.6602 28.3533 29.3795C28.0613 30.9532 27.4805 31.4809 26.9194 31.5324C25.6988 31.6446 24.7734 30.7265 23.5922 29.9525C21.7449 28.7407 20.7014 27.9867 18.9066 26.8044C16.8328 25.4381 18.1781 24.687 19.3594 23.4598C19.6678 23.1386 25.0425 18.2512 25.1442 17.8079C25.1573 17.7524 25.1705 17.5457 25.0458 17.4368C24.9244 17.3275 24.7439 17.3649 24.6127 17.3945C24.4256 17.4365 21.4758 19.3881 15.7533 23.2492C14.9166 23.8247 14.1586 24.1053 13.4761 24.0905C12.728 24.0744 11.2842 23.6666 10.2113 23.3181C8.89876 22.8905 7.85204 22.6645 7.94391 21.9383C7.98985 21.5603 8.51157 21.1735 9.50579 20.7781Z" fill="white"/>
</g>
<defs>
<linearGradient id="paint0_linear_282_1790" x1="2100" y1="0" x2="2100" y2="4200" gradientUnits="userSpaceOnUse">
<stop stop-color="#2AABEE"/>
<stop offset="1" stop-color="#229ED9"/>
</linearGradient>
<clipPath id="clip0_282_1790">
<rect width="42" height="42" fill="white"/>
</clipPath>
</defs>
</svg>
